<svg width="136" height="133" viewBox="0 0 136 133" fill="none" xmlns="http://www.w3.org/2000/svg">
<circle cx="68.5" cy="65.5" r="49.5" fill="#6B6EAB" fill-opacity="0.1"/>
<g filter="url(#filter0_d_124_111)">
<circle cx="68" cy="65" r="38" fill="#6B6EAB"/>
</g>
<path d="M76.6875 63.1875H68.8125V55.3125C68.8125 54.9644 68.6742 54.6306 68.4281 54.3844C68.1819 54.1383 67.8481 54 67.5 54C67.1519 54 66.8181 54.1383 66.5719 54.3844C66.3258 54.6306 66.1875 54.9644 66.1875 55.3125V63.1875H58.3125C57.9644 63.1875 57.6306 63.3258 57.3844 63.5719C57.1383 63.8181 57 64.1519 57 64.5C57 64.8481 57.1383 65.1819 57.3844 65.4281C57.6306 65.6742 57.9644 65.8125 58.3125 65.8125H66.1875V73.6875C66.1875 74.0356 66.3258 74.3694 66.5719 74.6156C66.8181 74.8617 67.1519 75 67.5 75C67.8481 75 68.1819 74.8617 68.4281 74.6156C68.6742 74.3694 68.8125 74.0356 68.8125 73.6875V65.8125H76.6875C77.0356 65.8125 77.3694 65.6742 77.6156 65.4281C77.8617 65.1819 78 64.8481 78 64.5C78 64.1519 77.8617 63.8181 77.6156 63.5719C77.3694 63.3258 77.0356 63.1875 76.6875 63.1875Z" fill="white"/>
<defs>
<filter id="filter0_d_124_111" x="0.184847" y="-2.81515" width="135.63" height="135.63" filterUnits="userSpaceOnUse" color-interpolation-filters="sRGB">
<feFlood flood-opacity="0" result="BackgroundImageFix"/>
<feColorMatrix in="SourceAlpha" type="matrix" values="0 0 0 0 0 0 0 0 0 0 0 0 0 0 0 0 0 0 127 0" result="hardAlpha"/>
<feOffset/>
<feGaussianBlur stdDeviation="14.9076"/>
<feColorMatrix type="matrix" values="0 0 0 0 0.0117647 0 0 0 0 0.0117647 0 0 0 0 0.0980392 0 0 0 0.2 0"/>
<feBlend mode="normal" in2="BackgroundImageFix" result="effect1_dropShadow_124_111"/>
<feBlend mode="normal" in="SourceGraphic" in2="effect1_dropShadow_124_111" result="shape"/>
</filter>
</defs>
</svg>
