<svg width="150" height="154" viewBox="0 0 150 154" fill="none" xmlns="http://www.w3.org/2000/svg">
<path d="M53.1245 51.6396C53.1245 53.3744 52.5384 55.0555 51.4663 56.3964C50.3941 57.7374 48.902 58.6553 47.2444 58.9937C45.5868 59.3321 43.8662 59.0701 42.3756 58.2523C40.8851 57.4346 39.717 56.1116 39.0702 54.5089C38.4235 52.9062 38.3381 51.1229 38.8287 49.4629C39.3194 47.8028 40.3556 46.3688 41.7608 45.405C43.1661 44.4412 44.8535 44.0074 46.5354 44.1775C48.2174 44.3475 49.7898 45.1109 50.9849 46.3376C51.6644 47.0329 52.2033 47.8594 52.5705 48.7693C52.9377 49.6792 53.126 50.6547 53.1245 51.6396Z" fill="#ECE7E1" stroke="black" stroke-width="0.58203" stroke-miterlimit="10" stroke-linecap="round"/>
<path d="M50.108 45.5754C49.011 45.2208 47.8475 45.1391 46.7137 45.3371C45.5773 45.5182 44.5128 46.0211 43.6398 46.7895C42.8147 47.5589 42.2578 48.5845 42.0542 49.7094C41.8329 50.8333 41.9211 51.9982 42.3087 53.0735C42.5103 53.6301 42.8155 54.1411 43.2071 54.5781C43.5973 55.0164 44.0825 55.3544 44.6235 55.5647C45.4673 55.8576 46.3828 55.8489 47.2211 55.54C48.0594 55.2311 48.7713 54.6403 49.2411 53.8635C49.4445 53.4738 49.5683 53.0456 49.6052 52.6052C49.642 52.1647 49.5909 51.7211 49.4552 51.3016C49.1872 50.4655 48.5853 49.7786 47.6584 49.6264C47.2985 49.5562 46.9262 49.5998 46.5909 49.7516C46.2556 49.9034 45.9731 50.1561 45.7809 50.4763C45.5882 50.7968 45.4774 51.162 45.4589 51.5381C45.4403 51.9142 45.5145 52.289 45.6746 52.6279" stroke="#070707" stroke-width="0.58203" stroke-miterlimit="10" stroke-linecap="round"/>
<path d="M37.6807 54.8728C38.2332 54.6146 38.9309 54.3118 39.7589 54.0075C40.6942 53.6649 41.6475 53.376 42.6142 53.1423C44.0926 52.7939 45.5983 52.581 47.1135 52.5061C50.0709 52.3441 53.0355 52.621 55.9159 53.3283C56.9027 53.5701 57.8772 53.8625 58.8356 54.2043C60.0897 54.6519 61.3149 55.1806 62.5039 55.7872C61.5824 57.1725 60.7502 58.6182 60.0124 60.1149C57.8325 64.5358 56.5152 69.3512 56.1345 74.2906C55.9756 76.3674 55.9801 78.4541 56.148 80.5301C56.148 80.5301 54.1222 81.108 51.4945 82.8354C48.0247 85.1109 45.1817 88.2619 43.237 91.9872C43.237 91.9872 44.4004 87.0878 44.2851 79.9999C44.1698 72.9121 42.7819 63.625 37.6807 54.8728Z" fill="#F6C34C" stroke="#070707" stroke-width="0.58203" stroke-miterlimit="10" stroke-linecap="round"/>
<path d="M122.961 77.741C122.876 73.9021 122.295 70.0918 121.232 66.41C119.664 60.9742 116.664 54.6501 110.916 49.7538C109.01 48.1304 106.914 46.7581 104.677 45.6689C102.921 44.8146 101.092 44.1298 99.2133 43.6234C91.9904 41.7439 84.6987 42.1158 78.2141 44.4072C71.7294 46.6986 66.0563 50.9126 62.072 56.7172C57.9665 62.6954 56.5052 69.1209 56.1309 74.3707C55.8735 77.9163 56.0688 81.4812 56.7118 84.9748L89.8374 81.3587L122.961 77.741Z" fill="#ECE7E1" stroke="black" stroke-width="0.58203" stroke-miterlimit="10" stroke-linecap="round"/>
<path d="M92.1802 81.103L107.571 79.4217L122.961 77.7404C122.876 73.9015 122.294 70.0912 121.232 66.4094C119.664 60.9736 116.663 54.6496 110.915 49.7532C109.01 48.1299 106.914 46.7576 104.676 45.6683C102.921 44.814 101.092 44.1292 99.2128 43.6228C98.008 43.3093 96.8022 43.0578 95.5954 42.8682C94.3886 42.6787 93.1868 42.5501 91.99 42.4825C89.5377 47 87.9844 51.9727 87.4203 57.1116C86.6927 63.7952 87.5102 72.0403 92.1802 81.103Z" fill="#F6991A" stroke="#070707" stroke-width="0.58203" stroke-miterlimit="10" stroke-linecap="round"/>
<path d="M97.978 43.3217C98.4701 45.3554 98.6569 47.4543 98.532 49.5459C98.3358 53.0806 97.1844 57.4821 93.3993 60.903C94.0561 62.2818 94.3893 63.7991 94.3725 65.3337C94.3576 67.9325 93.3379 71.292 89.3223 74.3457" stroke="#070707" stroke-width="0.58203" stroke-miterlimit="10" stroke-linecap="round"/>
<path d="M74.1774 46.137C71.7831 47.3516 69.5413 48.86 67.5011 50.6292C65.4471 52.4136 63.6227 54.4592 62.072 56.7166C57.9665 62.6948 56.5052 69.1203 56.1309 74.3701C55.8735 77.9157 56.0688 81.4806 56.7118 84.9742L66.7121 83.8831L76.7108 82.7904C79.2562 75.4259 79.0421 67.3653 77.982 60.5924C77.1972 55.6535 75.9224 50.8098 74.1774 46.137Z" fill="#F6991A" stroke="#070707" stroke-width="0.58203" stroke-miterlimit="10" stroke-linecap="round"/>
<path d="M68.652 49.6802C68.4016 51.4582 68.376 53.262 68.5756 55.0468C68.8841 57.6978 69.8243 60.7177 72.2769 62.631C72.615 62.894 72.9724 63.1299 73.3459 63.3364C73.7885 63.5818 74.2508 63.7875 74.7279 63.9512C74.2269 64.9122 73.8647 65.9429 73.6529 67.011C73.31 68.723 73.28 70.9268 74.4539 73.0308C74.9702 73.9488 75.6569 74.7539 76.4752 75.4005C77.021 75.8341 77.6139 76.2013 78.242 76.4948" stroke="#070707" stroke-width="0.58203" stroke-miterlimit="10" stroke-linecap="round"/>
<path d="M55.2693 108.384L59.0125 114.731L62.7557 121.079C60.7344 122.622 58.715 124.17 56.6977 125.723C54.6804 127.276 52.6536 128.813 50.6173 130.333C48.9149 131.606 47.1946 132.848 45.3424 133.714C43.4903 134.581 41.5079 135.059 39.28 134.812C38.2744 134.69 37.286 134.449 36.3349 134.092C35.4483 133.776 34.6015 133.352 33.812 132.831C33.7162 132.765 33.6173 132.694 33.544 132.64L33.4182 132.549C31.3091 131.143 29.7582 129.01 29.0447 126.534C28.3799 124.283 28.3769 121.908 28.6464 119.786C28.8496 118.196 29.2232 116.634 29.7604 115.128C30.2966 113.621 30.9841 112.175 31.8116 110.814L37.8696 100.825L43.926 90.8353C44.4052 90.0443 44.9182 89.2759 45.4652 88.53C46.0128 87.7882 46.5965 87.0753 47.214 86.3939C49.4287 83.9388 52.2235 82.1125 55.3277 81.0918C58.2968 80.0852 61.5144 79.7086 64.9207 79.5457C69.8243 79.3183 75.457 79.8623 80.4055 81.7665C85.3539 83.6706 89.6137 86.9364 91.7802 92.1493C92.0557 92.8152 92.3382 93.4776 92.6276 94.1364C92.9171 94.7952 93.2101 95.4524 93.5065 96.1082L100.015 110.513L106.524 124.918C107.028 126.03 107.327 127.228 107.406 128.452C107.533 130.411 107.054 132.362 106.037 134.025C105.682 134.597 105.269 135.13 104.806 135.615C103.172 137.35 100.977 138.414 98.6332 138.608C96.2837 138.81 93.9399 138.157 92.0123 136.763C88.2436 134.037 83.7384 129.694 80.1764 126.027C76.6144 122.36 73.9927 119.382 73.9927 119.382L78.5339 113.696L83.0751 108.009C83.0823 108.001 83.0869 107.99 83.0882 107.979C83.0895 107.968 83.0876 107.956 83.0826 107.946C83.078 107.937 83.0708 107.928 83.0617 107.923C83.0527 107.917 83.0423 107.914 83.0317 107.914L69.1475 108.152L55.2693 108.384Z" fill="#84A1E5" stroke="#070707" stroke-width="0.58203" stroke-miterlimit="10" stroke-linecap="round"/>
<path d="M98.8505 116.669C98.8506 117.83 98.4583 118.956 97.7404 119.854C97.0225 120.752 96.0235 121.366 94.9136 121.593C93.8036 121.82 92.6515 121.645 91.6534 121.097C90.6553 120.55 89.873 119.664 89.4399 118.591C89.0067 117.517 88.9495 116.323 89.2779 115.212C89.6064 114.1 90.3002 113.14 91.2411 112.494C92.1821 111.849 93.3119 111.558 94.4382 111.672C95.5644 111.786 96.6174 112.297 97.4176 113.118C97.8725 113.584 98.2333 114.138 98.4792 114.747C98.7251 115.356 98.8513 116.009 98.8505 116.669Z" fill="#DBCAF4" stroke="black" stroke-width="0.58203" stroke-miterlimit="10" stroke-linecap="round"/>
<path d="M80.2246 99.0602C80.2243 100.222 79.8317 101.347 79.1136 102.245C78.3955 103.143 77.3964 103.757 76.2865 103.983C75.1766 104.21 74.0245 104.034 73.0266 103.487C72.0286 102.939 71.2465 102.053 70.8136 100.98C70.3806 99.9068 70.3236 98.7127 70.6521 97.6012C70.9807 96.4897 71.6745 95.5296 72.6155 94.8843C73.5564 94.239 74.6862 93.9485 75.8124 94.0623C76.9385 94.1762 77.9914 94.6873 78.7917 95.5085C79.2466 95.9745 79.6074 96.5281 79.8533 97.1376C80.0992 97.7471 80.2254 98.4005 80.2246 99.0602Z" fill="#DBCAF4" stroke="black" stroke-width="0.58203" stroke-miterlimit="10" stroke-linecap="round"/>
<path d="M42.4238 121.689C42.4239 122.851 42.0315 123.976 41.3137 124.874C40.5958 125.772 39.5968 126.387 38.4868 126.614C37.3769 126.84 36.2247 126.665 35.2266 126.118C34.2285 125.57 33.4462 124.684 33.0131 123.611C32.5799 122.538 32.5227 121.344 32.8512 120.232C33.1796 119.121 33.8734 118.16 34.8144 117.515C35.7553 116.87 36.8851 116.579 38.0114 116.693C39.1376 116.807 40.1906 117.318 40.9909 118.139C41.4456 118.605 41.8062 119.158 42.0521 119.767C42.298 120.377 42.4243 121.03 42.4238 121.689Z" fill="#DBCAF4" stroke="black" stroke-width="0.58203" stroke-miterlimit="10" stroke-linecap="round"/>
<path d="M94.9266 133.806C94.9275 132.684 94.5623 131.595 93.8892 130.711C93.2162 129.827 92.2741 129.2 91.2133 128.93C90.1525 128.66 89.0342 128.763 88.0369 129.221C87.0396 129.68 86.2207 130.469 85.7109 131.461C86.7815 132.455 87.8625 133.423 88.9226 134.321C89.9826 135.218 91.0187 136.045 92.0129 136.761C92.2196 136.911 92.4302 137.051 92.6448 137.181C92.8594 137.311 93.077 137.433 93.2976 137.548C93.8112 137.078 94.222 136.501 94.5028 135.856C94.7836 135.211 94.928 134.513 94.9266 133.806Z" fill="#DBCAF4" stroke="black" stroke-width="0.58203" stroke-miterlimit="10" stroke-linecap="round"/>
<path d="M53.1216 89.3347C54.0933 89.335 55.0431 89.038 55.8496 88.4816C56.6562 87.9253 57.2829 87.1348 57.6497 86.2112C58.0166 85.2876 58.1069 84.2727 57.9092 83.2961C57.7115 82.3196 57.2348 81.4256 56.5398 80.7285C55.048 81.1365 53.6045 81.7117 52.2352 82.4436C50.8168 83.2121 49.5008 84.1651 48.3198 85.279C48.5372 86.4224 49.1351 87.4526 50.0111 88.1933C50.887 88.934 51.9866 89.3391 53.1216 89.3393V89.3347Z" fill="#DBCAF4" stroke="black" stroke-width="0.58203" stroke-miterlimit="10" stroke-linecap="round"/>
<path d="M84.1241 89.333C84.9736 89.3342 85.8088 89.1081 86.5471 88.6769C87.2855 88.2457 87.9015 87.6243 88.3345 86.8741C87.1883 85.6818 85.8987 84.6443 84.497 83.7866C83.0708 82.9141 81.5636 82.1892 79.9977 81.6227C79.7539 82.0169 79.5639 82.4435 79.4332 82.8906C79.2156 83.6402 79.1716 84.4317 79.3048 85.2018C79.4379 85.972 79.7445 86.6996 80.2002 87.3266C80.6559 87.9535 81.2479 88.4625 81.9292 88.813C82.6105 89.1635 83.3621 89.3458 84.1241 89.3453V89.333Z" fill="#DBCAF4" stroke="black" stroke-width="0.58203" stroke-miterlimit="10" stroke-linecap="round"/>
<path d="M53.9017 121.083C52.8786 121.082 51.8811 121.411 51.0496 122.022C50.218 122.634 49.5944 123.498 49.2664 124.493C48.9384 125.488 48.9226 126.563 49.2213 127.567C49.5199 128.571 50.1179 129.454 50.9311 130.092C52.1978 129.143 53.4595 128.188 54.7162 127.228C55.9729 126.268 57.2286 125.307 58.4833 124.344C58.1343 123.386 57.5085 122.56 56.6897 121.977C55.8708 121.395 54.8981 121.082 53.9017 121.083Z" fill="#DBCAF4" stroke="black" stroke-width="0.58203" stroke-miterlimit="10" stroke-linecap="round"/>
<path d="M42.8979 93.5229C41.766 98.4407 38.2264 99.1492 34.9699 98.6343C31.7133 98.1195 28.7472 96.3767 28.7472 96.3767C26.3052 99.704 23.5472 100.794 21.4001 101.052C19.253 101.31 17.7168 100.735 17.7168 100.735C11.1663 83.555 15.962 71.7798 22.3943 64.3C28.8266 56.8203 36.8894 53.636 36.8894 53.636C36.8894 53.636 39.7656 57.6425 41.9546 64.632C44.1436 71.6215 45.6454 81.5909 42.8979 93.5229Z" fill="#DBCAF4" stroke="black" stroke-width="0.58203" stroke-miterlimit="10" stroke-linecap="round"/>
<path d="M36.9156 87.1567C36.9441 87.677 36.8256 88.1946 36.5743 88.6474C36.3364 89.0685 35.9948 89.4179 35.5838 89.6607C35.1727 89.9035 34.7068 90.031 34.2325 90.0306C33.725 90.0273 33.2292 89.8742 32.8042 89.5895H32.7922C32.3677 89.8741 31.8723 90.0272 31.3653 90.0306C30.8909 90.0308 30.4248 89.9032 30.0135 89.6605C29.6023 89.4177 29.2604 89.0684 29.0221 88.6474C28.7713 88.1945 28.6532 87.6768 28.6822 87.1567C28.229 86.9222 27.8515 86.5582 27.5952 86.1086C27.3578 85.6863 27.2329 85.2075 27.2329 84.72C27.2329 84.2326 27.3578 83.7537 27.5952 83.3315C27.8516 82.8823 28.2291 82.5189 28.6822 82.2849C28.6534 81.7653 28.7714 81.2482 29.0221 80.7957C29.2609 80.3752 29.6029 80.0262 30.014 79.7835C30.4251 79.5408 30.891 79.413 31.3653 79.4126C31.8724 79.4165 32.3678 79.5701 32.7922 79.8552H32.8012C33.2261 79.5701 33.7219 79.4164 34.2295 79.4126C34.7036 79.4128 35.1694 79.5406 35.5803 79.7833C35.9912 80.026 36.3329 80.3751 36.5713 80.7957C36.8224 81.248 36.9409 81.7652 36.9127 82.2849C37.3651 82.5198 37.7424 82.883 37.9997 83.3315C38.2361 83.754 38.3605 84.2328 38.3605 84.72C38.3605 85.2073 38.2361 85.686 37.9997 86.1086C37.7433 86.5571 37.3671 86.9208 36.9156 87.1567Z" fill="#FF6406" stroke="#070707" stroke-width="0.58203" stroke-miterlimit="10" stroke-linecap="round"/>
<path d="M34.3377 84.7178C34.3369 85.0832 34.2127 85.4371 33.9863 85.7191C33.7598 86.0012 33.4451 86.1939 33.0958 86.2645C32.7464 86.3351 32.384 86.2792 32.0703 86.1063C31.7566 85.9334 31.511 85.6542 31.3754 85.3163C31.2397 84.9784 31.2224 84.6027 31.3263 84.2531C31.4303 83.9036 31.6491 83.6019 31.9455 83.3993C32.2418 83.1968 32.5975 83.106 32.9518 83.1424C33.306 83.1788 33.6371 83.3401 33.8885 83.5989C34.0315 83.7458 34.1448 83.9203 34.2219 84.1123C34.299 84.3043 34.3383 84.5101 34.3377 84.7178Z" fill="#ECE7E1" stroke="black" stroke-width="0.58203" stroke-miterlimit="10" stroke-linecap="round"/>
<path d="M40.6608 63.8597C40.2684 63.8509 39.8942 63.6884 39.6146 63.4057C39.335 63.123 39.1712 62.7413 39.1567 62.3388C39.1421 61.9362 39.278 61.5431 39.5364 61.24C39.7949 60.9368 40.1564 60.7464 40.547 60.7077C40.2476 59.9823 39.9586 59.3077 39.6726 58.6883C39.3866 58.069 39.1112 57.5003 38.8476 56.9978C38.6764 57.0223 38.5079 57.064 38.3446 57.1223C38.1846 57.1758 38.0297 57.2442 37.8819 57.3267C37.4702 57.5694 37.1287 57.92 36.8922 58.3425C36.641 58.7954 36.5225 59.313 36.5508 59.8333C36.0985 60.0691 35.7214 60.4328 35.4638 60.8814C35.2265 61.3036 35.1016 61.7825 35.1016 62.2699C35.1016 62.7573 35.2265 63.2362 35.4638 63.6584C35.7214 64.107 36.0985 64.4707 36.5508 64.7065C36.5225 65.2268 36.641 65.7444 36.8922 66.1973C37.1301 66.6183 37.4717 66.9678 37.8827 67.2105C38.2937 67.4533 38.7597 67.5809 39.2339 67.5804C39.7414 67.5771 40.2373 67.424 40.6623 67.1393H40.6713C40.9777 67.3443 41.3223 67.4816 41.6832 67.5425C42.044 67.6033 42.4133 67.5864 42.7675 67.4928C42.5878 66.7756 42.3997 66.0876 42.203 65.4289C42.0069 64.7649 41.8032 64.1272 41.5966 63.514C41.3292 63.7275 40.9997 63.8428 40.6608 63.8413V63.8597Z" fill="#FF6406" stroke="#070707" stroke-width="0.58203" stroke-miterlimit="10" stroke-linecap="round"/>
<path d="M39.1196 62.2778C39.1196 62.4854 39.1595 62.691 39.2369 62.8828C39.3144 63.0745 39.4279 63.2488 39.571 63.3955C39.7141 63.5422 39.8839 63.6586 40.0708 63.7379C40.2578 63.8172 40.4581 63.8579 40.6603 63.8577C40.9992 63.8591 41.3287 63.7439 41.5961 63.5303C41.4254 63.0232 41.2502 62.5329 41.0751 62.0627C40.8999 61.5924 40.7232 61.1406 40.5465 60.7026C40.1587 60.7313 39.7959 60.9098 39.5312 61.2021C39.2664 61.4944 39.1194 61.8787 39.1196 62.2778Z" fill="#ECE7E1" stroke="black" stroke-width="0.58203" stroke-miterlimit="10" stroke-linecap="round"/>
<path d="M17.8187 71.6514C17.7914 72.1685 17.9093 72.6827 18.1586 73.1329C18.3947 73.5526 18.734 73.9012 19.1426 74.144C19.5512 74.3867 20.0148 74.515 20.4869 74.5161C20.991 74.5133 21.4834 74.3606 21.9048 74.0765H21.9153C22.3366 74.3606 22.8291 74.5133 23.3332 74.5161C23.6948 74.5197 24.0533 74.4473 24.3866 74.3032C24.7199 74.1591 25.0208 73.9464 25.2708 73.6782C25.5209 73.41 25.7147 73.0921 25.8403 72.744C25.966 72.396 26.0208 72.0251 26.0013 71.6545C26.4511 71.4207 26.8258 71.0589 27.0808 70.6125C27.3183 70.1923 27.4433 69.7151 27.4433 69.2294C27.4433 68.7436 27.3183 68.2664 27.0808 67.8462C26.8258 67.3998 26.4511 67.0381 26.0013 66.8043C26.0282 66.2874 25.9108 65.7735 25.6629 65.3227C25.4559 64.9557 25.1695 64.6424 24.8258 64.4071C24.482 64.1718 24.0902 64.0208 23.6805 63.9657C23.318 63.9165 22.9494 63.9474 22.5995 64.0564C21.6385 65.1513 20.7463 66.3077 19.9284 67.5189C19.0642 68.798 18.2931 70.1407 17.6211 71.5361C17.6525 71.5577 17.6855 71.5776 17.7184 71.5961L17.8187 71.6529V71.6514ZM21.9108 67.6557C22.2643 67.656 22.6067 67.7822 22.8798 68.0126C23.1529 68.243 23.3398 68.5634 23.4086 68.9194C23.4774 69.2753 23.4239 69.6447 23.2572 69.9647C23.0905 70.2846 22.8209 70.5354 22.4943 70.6743C22.1677 70.8132 21.8043 70.8317 21.466 70.7265C21.1277 70.6213 20.8353 70.399 20.6387 70.0975C20.4421 69.7959 20.3533 69.4337 20.3876 69.0726C20.4219 68.7114 20.5771 68.3736 20.8267 68.1167C20.9697 67.9703 21.1395 67.8544 21.3263 67.7758C21.5132 67.6972 21.7133 67.6574 21.9153 67.6587L21.9108 67.6557Z" fill="#FF6406" stroke="#070707" stroke-width="0.58203" stroke-miterlimit="10" stroke-linecap="round"/>
<path d="M21.9149 70.7994C22.2692 70.7994 22.6126 70.6732 22.8864 70.4424C23.1603 70.2117 23.3477 69.8906 23.4168 69.5339C23.4859 69.1772 23.4324 68.8069 23.2654 68.4862C23.0984 68.1655 22.8282 67.9141 22.5009 67.7748C22.1735 67.6356 21.8093 67.6172 21.4702 67.7227C21.1311 67.8282 20.8382 68.0511 20.6412 68.3534C20.4443 68.6557 20.3555 69.0188 20.3901 69.3807C20.4247 69.7427 20.5805 70.0811 20.8309 70.3384C20.973 70.4848 21.142 70.6009 21.328 70.68C21.5141 70.7592 21.7135 70.7997 21.9149 70.7994Z" fill="#ECE7E1" stroke="black" stroke-width="0.58203" stroke-miterlimit="10" stroke-linecap="round"/>
<path d="M109.3 108.09L107.204 117.067L105.108 126.045L114.566 129.618L124.022 133.19C125.02 133.618 126.064 133.919 127.132 134.089C128.65 134.336 130.202 134.251 131.685 133.841C133.53 133.304 135.21 132.291 136.567 130.9C138.018 129.414 139.146 127.628 139.876 125.661C140.273 124.61 140.56 123.518 140.732 122.404C140.903 121.289 140.97 120.16 140.933 119.032C140.801 114.949 140.498 111.228 140.12 107.921C139.741 104.614 139.283 101.723 138.842 99.2995C137.432 91.5631 135.821 86.6376 134.393 83.4702C132.964 80.3028 131.72 78.8828 131.043 78.1651C125.937 72.737 119.126 70.3564 113.332 69.359C109.494 68.6974 105.592 68.525 101.713 68.8457C99.3435 69.078 96.9979 69.5212 94.703 70.1705C91.412 71.0974 88.2478 72.4461 85.2852 74.1847C82.3606 75.907 79.6562 77.9962 77.2344 80.4042C78.5969 80.8361 79.9303 81.3593 81.2261 81.9703C82.2005 82.4299 83.1501 82.9429 84.0709 83.5071C84.8785 83.9985 85.6579 84.5373 86.4051 85.1208C86.9801 85.5818 87.3634 85.9261 87.582 86.1289C87.8964 86.4209 88.2797 86.7974 88.696 87.2616C89.1644 87.7846 89.601 88.3369 90.0031 88.9152C90.7577 90.0027 91.3886 91.1752 91.8836 92.4099C92.1629 93.112 92.4014 93.8304 92.5978 94.5615C94.0262 99.633 96.2197 104.42 98.6034 109.128C100.987 113.835 103.564 118.467 105.754 123.249C106.345 120.725 106.936 118.199 107.526 115.673C108.116 113.146 108.707 110.619 109.3 108.09Z" fill="#C6FCDB" stroke="black" stroke-width="0.58203" stroke-miterlimit="10" stroke-linecap="round"/>
<path d="M59.335 97.4498C59.335 97.4498 60.0027 97.021 61.5285 97.2792C63.0542 97.5374 65.4378 98.481 68.8651 101.224" stroke="black" stroke-width="0.58203" stroke-miterlimit="10" stroke-linecap="round"/>
<path d="M70.4561 99.5449C70.4561 99.5449 69.17 98.6059 67.4496 97.61C65.7293 96.6142 63.5747 95.5614 61.8394 95.3355" stroke="black" stroke-width="0.58203" stroke-miterlimit="10" stroke-linecap="round"/>
<path d="M71.5692 98.0808C71.132 97.7658 70.6708 97.4446 70.1647 97.1218C69.6587 96.7991 69.1331 96.4764 68.5687 96.1583C68.0416 95.8601 67.5276 95.5876 67.0265 95.3407C66.5279 95.0948 66.0428 94.8704 65.5786 94.6691" stroke="black" stroke-width="0.58203" stroke-miterlimit="10" stroke-linecap="round"/>
<path d="M60.4905 79.9271C59.4783 80.0808 59.0082 80.9691 58.8899 82.0172C58.7853 83.0572 58.9597 84.1069 59.3945 85.0524C59.7761 85.7893 60.3892 86.3721 61.1343 86.7061C61.5995 86.9231 62.0935 87.0681 62.6001 87.1364C63.5118 87.2517 64.4365 87.0914 65.2608 86.6753C66.1325 86.2321 66.882 85.5716 67.4408 84.7543C67.7001 85.2465 68.0297 85.6961 68.4185 86.0883C69.1658 86.871 70.1445 87.3778 71.2019 87.5298C71.7646 87.5941 72.3336 87.5703 72.8894 87.4591C73.9316 87.28 74.8701 86.705 75.5186 85.8485C76.0776 85.0781 76.3785 84.1427 76.3765 83.1821C76.3769 82.1757 76.0855 81.1919 75.5395 80.3559C75.5395 80.3559 73.5931 79.9824 70.7483 79.7412C67.9035 79.4999 64.1273 79.3892 60.4905 79.9271Z" fill="#ECE7E1" stroke="black" stroke-width="0.58203" stroke-miterlimit="10" stroke-linecap="round"/>
<path d="M46.775 100.76L45.2478 99.9672L43.7206 99.1727L39.9475 103.906L36.1729 108.638L37.0503 109.225L37.9276 109.814L42.6545 109.602L47.3799 109.391L47.7183 107.029L48.0627 104.667L47.4233 102.714L46.775 100.76Z" fill="#F2B3C1" stroke="black" stroke-width="0.58203" stroke-miterlimit="10" stroke-linecap="round"/>
<path d="M40.6048 97.5519C40.5 97.6303 40.3608 97.7302 40.1916 97.8393C39.9978 97.963 39.7978 98.0764 39.5927 98.1789C38.2451 98.8475 36.8197 98.9335 35.5126 98.7783C34.2055 98.6231 33.0137 98.225 32.1213 97.9284C31.7066 97.7901 31.2005 97.6042 30.624 97.3506C29.9762 97.0648 29.3462 96.7384 28.7375 96.3732C28.4904 96.6974 28.1985 97.054 27.8571 97.4228C26.7131 98.6573 25.3581 99.6658 23.8594 100.398L30.0146 104.517L36.1699 108.636L39.9445 103.904L43.7176 99.1702L42.1605 98.3618L40.6048 97.5519Z" fill="#F6C34C" stroke="#070707" stroke-width="0.58203" stroke-miterlimit="10" stroke-linecap="round"/>
<path d="M87.9272 72.8172C89.8497 77.9604 91.7717 83.1001 93.6932 88.2362C95.6147 93.3723 97.5367 98.5125 99.4592 103.657C99.5466 103.882 99.7047 104.07 99.9084 104.193C100.112 104.315 100.35 104.364 100.584 104.332C100.818 104.3 101.035 104.189 101.2 104.017C101.365 103.844 101.47 103.619 101.497 103.379L103.467 86.0124L105.439 68.6462C103.682 68.6525 101.926 68.7751 100.184 69.0135C98.049 69.3039 95.9404 69.7711 93.8789 70.4105C92.7455 70.764 91.6824 71.1528 90.6912 71.5601C89.7 71.9673 88.7747 72.3869 87.9272 72.8172Z" fill="#ECE7E1" stroke="black" stroke-width="0.58203" stroke-miterlimit="10" stroke-linecap="round"/>
<path d="M75.4419 78.4755L79.7975 79.9493L84.153 81.4216L80.7332 84.5582L77.312 87.6934L76.3777 83.0844L75.4419 78.4755Z" fill="#040400" stroke="#040400" stroke-width="0.58203" stroke-miterlimit="10"/>
<path d="M83.1612 107.912L80.0364 104.59L76.9116 101.269C76.165 100.475 75.3819 99.7189 74.5624 99.0018C73.7437 98.2888 72.888 97.6219 71.9991 97.0039C70.912 96.2462 69.7037 95.5055 68.5673 95.0352C67.4309 94.5649 66.3678 94.3621 65.5728 94.6802C65.3148 94.5817 65.0473 94.5121 64.7747 94.4727C63.9746 94.3541 63.1587 94.5085 62.4525 94.9123C62.2354 95.0356 62.0308 95.1808 61.8416 95.3456C61.2893 95.3576 60.7543 95.5462 60.3114 95.8851C59.9971 96.1304 59.7412 96.4457 59.5628 96.8072C59.4607 97.0143 59.3842 97.2337 59.3352 97.4603C58.7105 97.824 58.1266 98.2569 57.5938 98.7513C57.3633 98.9649 57.1551 99.177 56.968 99.3844C56.7808 99.5919 56.6146 99.7932 56.4679 99.9838C56.2552 100.194 56.1029 100.459 56.0277 100.752C55.9609 100.992 55.9877 101.249 56.1026 101.468C56.1885 101.614 56.3132 101.73 56.4619 101.805C56.5535 101.846 56.6495 101.876 56.7479 101.894C56.9305 101.939 57.1208 101.939 57.3034 101.894C57.5833 101.814 57.845 101.678 58.073 101.493C58.5426 101.126 59.0387 100.796 59.5568 100.506C59.9247 100.309 60.3307 100.197 60.7456 100.179H60.8324H60.9178C61.3667 100.185 61.8097 100.285 62.2204 100.471C62.6382 100.655 63.0416 100.871 63.4272 101.118C64.7915 101.959 66.0895 102.909 67.3096 103.958C68.6721 105.172 69.7367 106.511 69.4133 107.548C69.3776 107.661 69.3272 107.768 69.2635 107.866C69.1869 107.98 69.0969 108.083 68.9955 108.174C68.9955 108.174 68.741 108.521 68.1226 108.519C67.5043 108.518 66.5221 108.166 65.0667 106.767C64.9589 106.664 64.8556 106.56 64.7523 106.46C64.649 106.36 64.5472 106.246 64.4528 106.137C64.133 105.784 63.7593 105.488 63.3463 105.258C62.8523 105.003 62.2848 104.911 61.8072 105.363C61.649 105.449 61.5169 105.578 61.4255 105.736C61.3341 105.894 61.2869 106.075 61.2891 106.259C61.2726 106.923 61.7458 108.023 63.6967 109.761C64.1339 110.151 64.5701 110.543 65.0053 110.937C65.4395 111.33 65.8722 111.727 66.299 112.129L70.1529 115.755L74.0054 119.379L78.5855 113.645L83.1612 107.912Z" fill="#D87D61" stroke="black" stroke-width="0.58203" stroke-miterlimit="10" stroke-linecap="round"/>
<path d="M101.066 104.133C101.004 104.184 100.935 104.226 100.863 104.259C100.743 104.316 100.615 104.347 100.484 104.353C100.281 104.362 100.08 104.308 99.9073 104.199C99.2934 99.8961 98.6805 95.5889 98.0687 91.2776C97.4568 86.9663 96.8434 82.6585 96.2285 78.3544L96.7466 78.2729L97.2631 78.1899C97.902 82.5166 98.5378 86.8408 99.1706 91.1623C99.8035 95.4839 100.435 99.8075 101.066 104.133Z" fill="#F6991A" stroke="#070707" stroke-width="0.58203" stroke-miterlimit="10" stroke-linecap="round"/>
<path d="M103.149 88.7624C103.077 89.3044 103.006 89.8464 102.935 90.3884L102.715 92.0143C102.306 89.5042 101.896 86.994 101.487 84.4838C101.078 81.9737 100.668 79.4635 100.258 76.9534L100.746 76.6214L101.236 76.291C101.553 78.3688 101.871 80.4471 102.191 82.5259C102.51 84.6047 102.83 86.6836 103.149 88.7624Z" fill="#F6991A" stroke="#070707" stroke-width="0.58203" stroke-miterlimit="10" stroke-linecap="round"/>
<path d="M95.9865 94.7473C95.6631 93.8252 95.3402 92.8995 95.0178 91.9703L94.049 89.1917C93.6747 87.2061 93.3009 85.22 92.9276 83.2334C92.5543 81.2468 92.1809 79.2602 91.8076 77.2736C91.8975 77.3212 91.9933 77.3704 92.0921 77.418C92.1909 77.4657 92.2927 77.5118 92.3916 77.5594C92.4754 77.5963 92.5592 77.6301 92.6401 77.6624L92.8812 77.7546C93.3962 80.5875 93.9123 83.4193 94.4293 86.2502L95.9865 94.7473Z" fill="#F6991A" stroke="#070707" stroke-width="0.58203" stroke-miterlimit="10" stroke-linecap="round"/>
<path d="M46.7732 113.673C46.9868 112.172 47.2004 110.671 47.414 109.17C47.6276 107.669 47.8408 106.168 48.0534 104.667C47.8408 104.015 47.6276 103.364 47.414 102.714L46.7732 100.76L37.7552 96.9335L28.7461 93.1053L38.2073 90.7816L47.6701 88.4564C48.8529 88.1659 50.0313 87.8601 51.2096 87.5481C52.388 87.2361 53.5618 86.9149 54.7387 86.5983C55.9816 86.2568 57.2894 86.25 58.5357 86.5784C60.0659 86.9918 61.7504 88.0153 63.2656 90.2068L66.859 94.8757L70.4525 99.5446L58.6121 106.614L46.7732 113.673Z" fill="#ECE7E1" stroke="black" stroke-width="0.58203" stroke-miterlimit="10" stroke-linecap="round"/>
<path d="M41.4448 98.4463C41.8758 98.3494 42.2789 98.1505 42.6217 97.8654C43.243 97.3736 43.9273 96.4822 44.1803 94.8578" stroke="black" stroke-width="0.58203" stroke-miterlimit="10" stroke-linecap="round"/>
<path d="M63.2594 90.212C61.7442 88.019 60.0582 86.997 58.5295 86.582C57.283 86.2548 55.9754 86.2622 54.7324 86.6035C53.5556 86.9201 52.3802 87.2398 51.2019 87.5533C50.0235 87.8668 48.8467 88.168 47.6638 88.4616L46.7894 88.6752L45.915 88.8903C46.106 90.8478 46.7481 92.7305 47.7881 94.383C48.7746 95.9519 50.165 97.2099 51.8053 98.0176C52.9748 98.5796 54.2429 98.8933 55.5335 98.9397C56.3977 98.9717 57.2626 98.899 58.1103 98.723C58.4557 99.4945 58.801 100.266 59.1464 101.039L60.184 103.357C60.2972 103.648 60.4246 103.933 60.5658 104.211C60.7267 104.531 60.9088 104.839 61.1108 105.133C61.9109 106.356 63.1432 107.212 64.547 107.52C65.9235 107.834 67.3651 107.579 68.5597 106.81C68.9375 106.563 69.2832 106.268 69.5883 105.932C69.8867 105.601 70.1446 105.234 70.3564 104.84C70.8698 103.879 71.0874 102.782 70.9808 101.692C70.8751 100.599 70.4656 99.5606 69.8009 98.6999L66.5309 94.4598L63.2594 90.212Z" fill="#040400" stroke="#040400" stroke-width="0.58203" stroke-miterlimit="10"/>
<path d="M44.1825 94.8573C44.8829 94.7923 45.5881 94.9042 46.2367 95.1831C46.7772 95.4352 47.1486 95.8132 47.2758 96.2589C47.3058 96.3733 47.3224 96.4909 47.3252 96.6093C47.3353 96.8249 47.2832 97.0387 47.1755 97.2241C46.9389 97.6067 46.4194 97.8188 45.7202 97.8388C44.8524 97.8293 43.995 97.6439 43.1973 97.2932C43.2975 97.1615 43.3909 97.0246 43.4773 96.8829C43.5794 96.716 43.6719 96.543 43.7542 96.365C43.9742 95.8889 44.1192 95.38 44.184 94.8573H44.1825Z" fill="#FC762B" stroke="#070707" stroke-width="0.58203" stroke-miterlimit="10" stroke-linecap="round"/>
<path d="M50.4899 92.2353C50.4898 92.4102 50.4307 92.5797 50.3225 92.7149C50.2143 92.8501 50.0639 92.9426 49.8967 92.9767C49.7295 93.0107 49.556 92.9842 49.4058 92.9017C49.2555 92.8192 49.1377 92.6857 49.0726 92.5241C49.0074 92.3625 48.9989 92.1826 49.0484 92.0153C49.0979 91.8479 49.2025 91.7033 49.3442 91.6062C49.4859 91.509 49.6561 91.4653 49.8257 91.4825C49.9953 91.4997 50.1538 91.5768 50.2743 91.7005C50.3428 91.7706 50.3972 91.854 50.4342 91.9458C50.4712 92.0376 50.4901 92.136 50.4899 92.2353Z" fill="#ECE7E1" stroke="black" stroke-width="0.58203" stroke-miterlimit="10" stroke-linecap="round"/>
<path d="M47.2412 102.187C48.0063 102.262 48.8373 102.316 49.7282 102.34C50.619 102.365 51.5698 102.34 52.573 102.265C53.7782 102.18 54.9778 102.026 56.1664 101.804C57.2684 101.595 58.2626 101.343 59.161 101.086L59.67 102.227L60.1806 103.365C58.9465 103.85 57.6762 104.23 56.382 104.503C54.7566 104.844 53.1001 105.006 51.441 104.985C50.8242 104.976 50.2313 104.942 49.6653 104.89C49.0993 104.838 48.5618 104.765 48.0512 104.681L47.6485 103.428L47.2412 102.187Z" fill="#DBCAF4" stroke="black" stroke-width="0.58203" stroke-miterlimit="10" stroke-linecap="round"/>
<path d="M75.478 79.3093C75.5724 79.1264 75.6652 78.9358 75.755 78.7345C75.8449 78.5332 75.9332 78.3226 76.017 78.1013C76.2553 77.4724 76.4402 76.8235 76.5695 76.1619C76.6767 75.6107 76.7458 75.0525 76.7762 74.4913C77.0162 74.5072 77.2532 74.5547 77.4814 74.6327C77.7775 74.7308 78.0437 74.906 78.254 75.1414C78.7121 75.6701 78.8229 76.5 78.6507 77.293C78.4786 78.086 78.0234 78.8298 77.3511 79.191C77.0109 79.3686 76.6321 79.4543 76.2506 79.4399C75.9887 79.4302 75.7291 79.3863 75.478 79.3093Z" fill="#D87D61" stroke="black" stroke-width="0.58203" stroke-miterlimit="10" stroke-linecap="round"/>
<path d="M60.1956 74.9691L55.611 75.0936L51.0264 75.2181L53.425 79.2307L55.8221 83.2434L58.0081 79.1063L60.1956 74.9691Z" fill="#040400" stroke="#040400" stroke-width="0.58203" stroke-miterlimit="10"/>
<path d="M55.3506 108.58L58.8647 105.66L62.3803 102.74C63.2307 102.063 64.1106 101.43 65.0199 100.841C65.93 100.252 66.8701 99.7147 67.8363 99.23C69.0161 98.6383 70.3158 98.0835 71.5061 97.7838C72.6964 97.4841 73.7775 97.4396 74.5201 97.8714C75.0474 97.7513 75.5939 97.7504 76.1216 97.8688C76.6493 97.9871 77.1456 98.2219 77.576 98.5568C77.7737 98.7108 77.9563 98.8843 78.121 99.0747C78.3266 99.11 78.5275 99.1693 78.7199 99.2515C79.06 99.3965 79.3659 99.6148 79.6167 99.8916C79.8675 100.168 80.0575 100.497 80.1738 100.856C80.2467 101.076 80.2919 101.304 80.3085 101.535L81.4824 102.858L82.6562 104.183C82.9246 104.429 83.1 104.764 83.1518 105.13C83.1771 105.276 83.1725 105.427 83.1382 105.572C83.104 105.716 83.0408 105.852 82.9527 105.97C82.8373 106.092 82.6963 106.185 82.5406 106.242C82.3849 106.299 82.2186 106.318 82.0544 106.299C81.8496 106.283 81.6501 106.225 81.4684 106.127C81.2866 106.028 81.1262 105.893 80.9973 105.729C80.7338 105.443 80.4389 105.189 80.1184 104.973C79.6079 104.625 79.0363 104.383 78.4355 104.26L78.3501 104.243L78.2663 104.229C77.8425 104.16 77.4112 104.155 76.9861 104.215C76.5604 104.276 76.1445 104.395 75.7494 104.569C74.2825 105.202 72.8663 105.952 71.5136 106.813C69.9924 107.802 68.7511 108.964 68.9278 110.04C68.9474 110.157 68.9827 110.27 69.0326 110.377C69.0916 110.502 69.1661 110.619 69.2542 110.725C69.2542 110.725 69.4578 111.107 70.0702 111.186C70.6826 111.266 71.7022 111.071 73.3388 109.9C73.4585 109.814 73.5768 109.727 73.6936 109.636C73.8104 109.545 73.9257 109.454 74.0395 109.361C74.4058 109.059 74.8168 108.82 75.2568 108.652C75.7823 108.472 76.3558 108.465 76.7675 108.983C76.9121 109.091 77.0247 109.238 77.0932 109.408C77.1616 109.577 77.1831 109.763 77.1553 109.945C77.0774 110.604 76.4576 111.624 74.285 113.06C73.7969 113.381 73.3108 113.704 72.8267 114.031C72.3416 114.357 71.8595 114.686 71.3803 115.022L67.0637 118.059L62.7456 121.084C61.5128 119 60.2801 116.916 59.0473 114.832L55.3506 108.58Z" fill="#D87D61" stroke="black" stroke-width="0.58203" stroke-miterlimit="10" stroke-linecap="round"/>
<path d="M76.6385 75.7657C76.1894 78.5197 74.8613 80.8542 73.0675 82.4018C71.2738 83.9493 69.0249 84.707 66.7266 84.3228C64.4283 83.9386 62.5343 82.4632 61.329 80.4039C60.1237 78.3445 59.5906 75.6889 60.0398 72.9349C60.489 70.1809 61.8171 67.8464 63.6108 66.2973C65.4045 64.7482 67.6534 63.9921 69.9517 64.3763C72.25 64.7605 74.1441 66.2374 75.3494 68.2967C76.5547 70.3561 77.0847 73.0086 76.6385 75.7657Z" fill="#D87D61" stroke="black" stroke-width="0.58203" stroke-miterlimit="10" stroke-linecap="round"/>
<path d="M70.6489 73.7664C70.6261 73.9029 70.552 74.0248 70.4425 74.1058C70.3742 74.1558 70.295 74.1878 70.2119 74.1989C70.1288 74.21 70.0442 74.1999 69.9658 74.1696C69.8873 74.1392 69.8174 74.0894 69.7622 74.0247C69.7069 73.9599 69.6681 73.8822 69.649 73.7984C69.63 73.7146 69.6314 73.6272 69.6531 73.5441C69.6748 73.461 69.7161 73.3846 69.7734 73.3218C69.8307 73.259 69.9022 73.2116 69.9816 73.1839C70.061 73.1561 70.1458 73.1489 70.2285 73.1628C70.2948 73.174 70.3582 73.1985 70.4153 73.2349C70.4723 73.2713 70.5217 73.3189 70.5608 73.375C70.5999 73.4311 70.6277 73.4945 70.6429 73.5617C70.658 73.6288 70.6601 73.6984 70.6489 73.7664Z" fill="#040400"/>
<path d="M64.5513 72.8997C64.5373 72.9845 64.5032 73.0645 64.4519 73.1325C64.4007 73.2006 64.3339 73.2546 64.2575 73.2899C64.181 73.3251 64.0973 73.3405 64.0137 73.3347C63.9301 73.3289 63.8492 73.302 63.7781 73.2565C63.707 73.2109 63.6479 73.1481 63.6061 73.0735C63.5643 72.999 63.541 72.915 63.5383 72.8291C63.5357 72.7431 63.5536 72.6578 63.5907 72.5806C63.6278 72.5035 63.6828 72.4369 63.7509 72.3868C63.833 72.3263 63.9308 72.2922 64.0319 72.2888C64.1329 72.2855 64.2327 72.3131 64.3185 72.368C64.4042 72.423 64.4721 72.5029 64.5136 72.5975C64.5551 72.6922 64.5682 72.7974 64.5513 72.8997Z" fill="#040400"/>
<path d="M65.9598 75.3062L65.56 74.7806L65.1618 74.255C65.1563 74.2486 65.1528 74.2407 65.1515 74.2323C65.1501 74.2239 65.1511 74.2152 65.1543 74.2074C65.1573 74.1993 65.1624 74.1922 65.169 74.1868C65.1755 74.1815 65.1834 74.1779 65.1917 74.1766L65.7906 74.1305L66.3895 74.0829L66.6366 72.5537L66.8851 71.0169" stroke="black" stroke-width="0.58203" stroke-miterlimit="10" stroke-linecap="round"/>
<path d="M68.1267 76.9205C67.9738 77.1931 67.7504 77.417 67.4814 77.5675C67.1984 77.726 66.8814 77.8095 66.5591 77.8104C66.2064 77.8124 65.8597 77.718 65.5544 77.5368C65.2609 77.3651 65.0226 77.1093 64.8687 76.8007" stroke="black" stroke-width="0.58203" stroke-miterlimit="10" stroke-linecap="round"/>
<path d="M69.4912 70.6273L70.9286 71.2712L72.366 71.9167" stroke="black" stroke-width="0.58203" stroke-miterlimit="10" stroke-linecap="round"/>
<path d="M80.304 101.519C80.304 101.519 79.7051 100.997 78.157 101.029C76.6088 101.061 74.1143 101.644 70.3457 103.86" stroke="black" stroke-width="0.58203" stroke-miterlimit="10" stroke-linecap="round"/>
<path d="M65.5919 70.348L64.0452 70.7322L62.5 71.1148" stroke="black" stroke-width="0.58203" stroke-miterlimit="10" stroke-linecap="round"/>
<path d="M69.0044 101.969C69.0044 101.969 70.4088 101.229 72.249 100.494C74.0891 99.7594 76.3695 99.034 78.1198 99.0632" stroke="black" stroke-width="0.58203" stroke-miterlimit="10" stroke-linecap="round"/>
<path d="M72.6869 76.5773C72.6362 76.8931 72.4803 77.181 72.2459 77.3921C72.0115 77.6031 71.713 77.7242 71.4013 77.7347C71.0897 77.7451 70.7841 77.6443 70.5368 77.4494C70.2894 77.2546 70.1156 76.9776 70.0449 76.6659C69.9742 76.3542 70.011 76.0269 70.149 75.74C70.287 75.453 70.5178 75.224 70.8019 75.0921C71.086 74.9602 71.4059 74.9334 71.707 75.0165C72.0082 75.0996 72.2719 75.2873 72.4533 75.5476C72.661 75.8455 72.745 76.2158 72.6869 76.5773Z" fill="#FF6406" stroke="#070707" stroke-width="0.58203" stroke-miterlimit="10" stroke-linecap="round"/>
<path d="M64.5046 75.3338C64.4536 75.6494 64.2975 75.9372 64.063 76.148C63.8285 76.3589 63.53 76.4797 63.2184 76.4899C62.9068 76.5002 62.6014 76.3993 62.3541 76.2043C62.1069 76.0093 61.9332 75.7324 61.8626 75.4207C61.792 75.109 61.8289 74.7819 61.967 74.495C62.105 74.2081 62.3358 73.9792 62.6198 73.8473C62.9039 73.7154 63.2237 73.6887 63.5247 73.7717C63.8258 73.8547 64.0896 74.0423 64.271 74.3025C64.374 74.4503 64.4476 74.6174 64.4877 74.7943C64.5278 74.9712 64.5335 75.1545 64.5046 75.3338Z" fill="#FF6406" stroke="#070707" stroke-width="0.58203" stroke-miterlimit="10" stroke-linecap="round"/>
<path d="M61.1105 69.5702C62.2554 69.7895 63.4262 69.8288 64.5826 69.687C66.5545 69.4565 68.9981 68.645 70.8861 66.3275C71.2506 67.5596 71.7305 68.7527 72.319 69.8899C73.2863 71.7586 74.7596 73.7996 76.7824 74.4927C77.0227 74.5102 77.2596 74.562 77.4861 74.6463C77.7125 74.7192 77.9222 74.8385 78.1024 74.997C78.2825 75.1555 78.4294 75.3499 78.5342 75.5684C78.5342 75.5684 79.6736 73.0219 79.4011 70.0359C79.1286 67.0498 77.4442 63.6104 71.7965 61.8338C70.0303 61.3603 68.1761 61.3529 66.4063 61.8123C63.5271 62.5807 60.284 64.932 58.8271 71.2177C58.9848 71.145 59.1508 71.0934 59.3212 71.064C59.6941 70.9882 60.0805 71.0267 60.4322 71.1746L60.7766 70.377L61.1105 69.5702Z" fill="#040400" stroke="#040400" stroke-width="0.58203" stroke-miterlimit="10"/>
<path d="M63.9118 77.0998C63.9195 77.0628 63.925 77.0253 63.9283 76.9876C63.9283 76.9492 63.9358 76.9108 63.9373 76.8739C63.9412 76.7677 63.9377 76.6614 63.9268 76.5558C63.9163 76.4497 63.9013 76.3452 63.8849 76.2407C63.8444 75.9718 63.7965 75.7028 63.7426 75.437C63.6887 75.1711 63.6288 74.9037 63.5629 74.6409C63.557 74.6185 63.5451 74.5983 63.5284 74.5826C63.5118 74.5669 63.4912 74.5563 63.4689 74.5521C63.4467 74.5479 63.4237 74.5503 63.4028 74.5589C63.3818 74.5676 63.3636 74.5821 63.3503 74.6009C63.247 74.7546 63.1452 74.9083 63.0509 75.062C62.9566 75.2157 62.8562 75.377 62.7634 75.5353C62.6526 75.7243 62.5343 75.918 62.434 76.1209C62.3305 76.3186 62.2558 76.5309 62.2124 76.751C62.1942 76.8569 62.1887 76.9648 62.1959 77.0721C62.2045 77.1781 62.2298 77.2819 62.2708 77.3795C62.3364 77.5238 62.4402 77.6463 62.5703 77.733C62.6965 77.8232 62.8445 77.8758 62.998 77.885C63.1516 77.8942 63.3046 77.8597 63.4402 77.7852C63.6383 77.6831 63.7909 77.5072 63.8669 77.2935C63.887 77.2303 63.9021 77.1655 63.9118 77.0998Z" fill="#84A1E5" stroke="#070707" stroke-width="0.58203" stroke-miterlimit="10" stroke-linecap="round"/>
<path d="M68.1167 100.354C68.5928 100.106 69.1004 99.8573 69.6409 99.6114C70.1814 99.3655 70.7519 99.1227 71.3538 98.8906C71.9168 98.6724 72.4648 98.4787 72.9933 98.3082C73.5218 98.1376 74.0324 97.9854 74.5205 97.8471" stroke="black" stroke-width="0.58203" stroke-miterlimit="10" stroke-linecap="round"/>
<path d="M83.1606 107.908L89 112.946L94.8393 117.983" stroke="black" stroke-width="0.58203" stroke-miterlimit="10" stroke-linecap="round"/>
<path d="M105.576 65.853C105.726 69.1419 104.793 72.1771 103.152 74.4239C101.511 76.6708 99.1677 78.1292 96.51 78.266C93.8524 78.4028 91.3834 77.201 89.5372 75.137C87.6911 73.0731 86.4768 70.1516 86.3226 66.8627C86.1684 63.5739 87.1072 60.5402 88.7467 58.2934C90.3862 56.0465 92.7309 54.5865 95.3886 54.4513C98.0462 54.3161 100.515 55.5179 102.358 57.5818C104.201 59.6458 105.422 62.5642 105.576 65.853Z" fill="#D87D61" stroke="black" stroke-width="0.58203" stroke-miterlimit="10" stroke-linecap="round"/>
<path d="M96.7241 65.2821C96.7324 65.4048 96.7046 65.5273 96.6444 65.6337C96.5841 65.7401 96.4941 65.8255 96.3861 65.8788C96.278 65.9321 96.1568 65.9509 96.0383 65.9327C95.9197 65.9146 95.8091 65.8603 95.7209 65.7769C95.6029 65.6661 95.5319 65.5121 95.5233 65.3482C95.5153 65.225 95.5437 65.1023 95.6046 64.9959C95.6656 64.8895 95.7563 64.8044 95.865 64.7517C95.9737 64.6989 96.0954 64.681 96.2142 64.7003C96.3329 64.7195 96.4433 64.7749 96.531 64.8594C96.647 64.9688 96.7164 65.1206 96.7241 65.2821Z" fill="#040400"/>
<path d="M90.3414 66.6836C90.3504 66.847 90.2967 67.0076 90.1917 67.1308C90.1385 67.1913 90.0742 67.2405 90.0025 67.2756C89.9308 67.3106 89.8531 67.3308 89.7737 67.335C89.6944 67.3392 89.6151 67.3274 89.5402 67.3001C89.4654 67.2728 89.3965 67.2307 89.3375 67.1761C89.2785 67.1215 89.2306 67.0555 89.1964 66.9819C89.1623 66.9083 89.1426 66.8285 89.1385 66.7471C89.1344 66.6657 89.146 66.5843 89.1725 66.5074C89.1991 66.4306 89.2401 66.3599 89.2933 66.2993C89.4013 66.1782 89.5513 66.1053 89.7111 66.0965C89.7902 66.0919 89.8695 66.1036 89.9442 66.1307C90.019 66.1578 90.0877 66.1999 90.1465 66.2545C90.2053 66.3091 90.2529 66.3752 90.2866 66.4488C90.3203 66.5225 90.3395 66.6023 90.3429 66.6836H90.3414Z" fill="#040400"/>
<path d="M92.8579 68.8474L92.1857 68.4694L91.5134 68.079C91.5049 68.074 91.4979 68.0669 91.4929 68.0582C91.4879 68.0496 91.4852 68.0398 91.4849 68.0298C91.4844 68.0197 91.4867 68.0095 91.4914 68.0006C91.4962 67.9916 91.5033 67.9842 91.5119 67.9791L92.1422 67.6395L92.7726 67.2998L92.3444 65.5233L91.9161 63.7482" stroke="black" stroke-width="0.58203" stroke-miterlimit="10" stroke-linecap="round"/>
<path d="M95.848 69.9387C95.7763 70.3024 95.6079 70.6386 95.3613 70.91C95.1027 71.196 94.7784 71.411 94.4181 71.5355C94.0238 71.6726 93.6011 71.6997 93.1933 71.6139C92.8021 71.5348 92.4422 71.3392 92.1587 71.0514" stroke="black" stroke-width="0.58203" stroke-miterlimit="10" stroke-linecap="round"/>
<path d="M94.7178 61.9942L96.5429 61.6852L98.3681 61.3763" stroke="black" stroke-width="0.58203" stroke-miterlimit="10" stroke-linecap="round"/>
<path d="M90.7348 62.7117L88.956 63.3265L87.1772 63.9412" stroke="black" stroke-width="0.58203" stroke-miterlimit="10" stroke-linecap="round"/>
<path d="M105.438 68.6309C105.485 68.3235 105.524 67.9885 105.552 67.635C105.581 67.2816 105.596 66.9096 105.594 66.5178C105.593 65.8371 105.543 65.1575 105.444 64.4845C105.364 63.929 105.251 63.3789 105.107 62.837C105.419 62.7559 105.739 62.7177 106.06 62.7233C106.497 62.7229 106.924 62.8555 107.287 63.1045C107.966 63.5947 108.289 64.526 108.274 65.4804C108.259 66.4348 107.907 67.4137 107.226 67.9993C106.944 68.24 106.614 68.4146 106.259 68.511C105.991 68.5857 105.716 68.6259 105.438 68.6309Z" fill="#D87D61" stroke="black" stroke-width="0.58203" stroke-miterlimit="10" stroke-linecap="round"/>
<path d="M99.9541 68.0265C99.9719 68.4029 99.8621 68.774 99.6432 69.0765C99.4244 69.3791 99.1101 69.5945 98.754 69.686C98.3978 69.7774 98.0218 69.7393 97.6899 69.5781C97.3581 69.4169 97.0909 69.1425 96.934 68.8018C96.7771 68.4612 96.7401 68.0752 96.8293 67.7096C96.9186 67.3441 97.1285 67.0216 97.4234 66.7971C97.7183 66.5726 98.0799 66.4601 98.4466 66.4785C98.8133 66.497 99.1625 66.6454 99.4345 66.8984C99.5893 67.042 99.715 67.2155 99.8041 67.4091C99.8933 67.6027 99.9443 67.8125 99.9541 68.0265Z" fill="#FF6406" stroke="#070707" stroke-width="0.58203" stroke-miterlimit="10" stroke-linecap="round"/>
<path d="M91.021 70.2079C91.039 70.5847 90.9292 70.9563 90.7102 71.2593C90.4912 71.5623 90.1766 71.7779 89.8201 71.8696C89.4636 71.9612 89.0871 71.9231 88.7549 71.7617C88.4226 71.6004 88.1552 71.3258 87.9981 70.9847C87.841 70.6436 87.804 70.2572 87.8934 69.8913C87.9828 69.5254 88.193 69.2026 88.4883 68.9779C88.7835 68.7532 89.1455 68.6406 89.5126 68.6592C89.8797 68.6778 90.2292 68.8265 90.5015 69.0799C90.6563 69.2234 90.782 69.397 90.8712 69.5906C90.9604 69.7842 91.0113 69.994 91.021 70.2079Z" fill="#FF6406" stroke="#070707" stroke-width="0.58203" stroke-miterlimit="10" stroke-linecap="round"/>
<path d="M87.3729 71.7701C87.2681 71.4966 87.1648 71.2077 87.0734 70.9049C86.9821 70.6022 86.8818 70.2902 86.7949 69.9536C86.6075 69.2419 86.4645 68.5186 86.3667 67.7882C86.2846 67.1643 86.2347 66.5364 86.217 65.9071C85.9426 65.8788 85.6657 65.8876 85.3935 65.9333C85.0403 65.9915 84.7083 66.1442 84.4308 66.3759C83.8169 66.903 83.6821 67.8466 83.8753 68.7964C84.0684 69.7461 84.5895 70.7051 85.2857 71.2553C85.6354 71.5275 86.0483 71.7013 86.4835 71.7594C86.7782 71.8028 87.0772 71.8064 87.3729 71.7701Z" fill="#D87D61" stroke="black" stroke-width="0.58203" stroke-miterlimit="10" stroke-linecap="round"/>
<path d="M91.141 57.9184C91.1387 58.8603 90.8182 59.7722 90.2343 60.4987C89.6503 61.2253 88.839 61.7215 87.9386 61.9029C87.0381 62.0843 86.1043 61.9396 85.2961 61.4935C84.4879 61.0473 83.8555 60.3274 83.5065 59.4563C83.1575 58.5852 83.1136 57.6168 83.3823 56.7162C83.6509 55.8156 84.2155 55.0385 84.9798 54.5172C85.7441 53.996 86.6608 53.7629 87.5738 53.8576C88.4867 53.9524 89.3394 54.3691 89.9866 55.0369C90.3543 55.4156 90.6456 55.865 90.8437 56.3595C91.0418 56.854 91.1428 57.3838 91.141 57.9184Z" fill="#040400" stroke="#040400" stroke-width="0.58203" stroke-miterlimit="10"/>
<path d="M98.3221 55.1584C98.322 56.4878 97.8728 57.7761 97.0511 58.8037C96.2293 59.8313 95.0859 60.5346 93.8156 60.7939C92.5453 61.0532 91.2267 60.8523 90.0845 60.2256C88.9422 59.5988 88.0471 58.5849 87.5515 57.3567C87.0559 56.1284 86.9906 54.7618 87.3666 53.4897C87.7427 52.2175 88.5368 51.1186 89.6138 50.3801C90.6907 49.6415 91.9838 49.3091 93.2728 49.4395C94.5617 49.5699 95.7668 50.155 96.6825 51.095C97.2034 51.6279 97.6164 52.2612 97.8978 52.9586C98.1791 53.656 98.3233 54.4036 98.3221 55.1584Z" fill="#040400" stroke="#040400" stroke-width="0.58203" stroke-miterlimit="10"/>
<path d="M107.323 55.1565C107.325 56.4862 106.877 57.7754 106.057 58.8044C105.237 59.8335 104.094 60.5388 102.824 60.8001C101.554 61.0614 100.234 60.8626 99.0911 60.2376C97.9477 59.6125 97.0507 58.5999 96.5531 57.3723C96.0555 56.1446 95.988 54.7778 96.3621 53.5048C96.7361 52.2317 97.5287 51.1312 98.6046 50.3906C99.6806 49.6501 100.973 49.3153 102.263 49.4434C103.552 49.5715 104.758 50.1545 105.676 51.0931C106.198 51.6254 106.613 52.2585 106.895 52.9559C107.178 53.6533 107.323 54.4012 107.323 55.1565Z" fill="#040400" stroke="#040400" stroke-width="0.58203" stroke-miterlimit="10"/>
<path d="M51.6681 48.0616C51.0393 51.0354 51.472 53.9523 52.6818 56.2637C53.8916 58.5751 55.8784 60.281 58.3549 60.8327C60.8314 61.3844 63.3273 60.679 65.3621 59.0915C67.3969 57.5039 68.972 55.0358 69.6009 52.062C70.2297 49.0882 69.7985 46.1698 68.5872 43.8584C67.376 41.547 65.3921 39.8411 62.9156 39.2894C60.4391 38.7377 57.9432 39.4431 55.9084 41.0306C53.8736 42.6182 52.2985 45.0863 51.6681 48.0616Z" fill="#F2B3C1" stroke="black" stroke-width="0.58203" stroke-miterlimit="10" stroke-linecap="round"/>
<path d="M101.013 60.1723C101.11 61.1319 101.357 62.0691 101.745 62.9478C102.362 64.268 103.481 65.459 105.489 64.9319C105.489 64.9319 105.451 64.5984 105.385 64.1711C105.32 63.7225 105.227 63.2785 105.108 62.8418C105.108 62.8418 105.258 62.8064 105.478 62.7772C105.759 62.7389 106.044 62.7291 106.327 62.748C106.43 62.2651 106.498 61.7751 106.531 61.2819C106.62 60.1083 106.551 58.9277 106.327 57.7733L103.671 58.972L101.013 60.1723Z" fill="#040400" stroke="#040400" stroke-width="0.58203" stroke-miterlimit="10"/>
<path d="M109.3 107.912L107.378 116.013L105.457 124.113C103.236 123.533 101.078 122.721 99.0185 121.69C97.5363 120.944 96.1135 120.081 94.7632 119.106C93.8442 118.447 92.9735 117.72 92.158 116.93C90.8883 115.702 89.7722 114.316 88.8355 112.806C88.4406 112.14 88.0966 111.445 87.8069 110.725C87.3428 109.561 86.9819 108.15 87.3907 107.167C87.4356 107.051 87.4934 106.941 87.5629 106.838C87.6643 106.684 87.8031 106.56 87.9656 106.478C88.2382 106.361 88.5425 106.348 88.8236 106.441C89.0499 106.505 89.2634 106.609 89.4539 106.749C89.9276 107.13 90.3482 107.577 90.7041 108.075C91.071 108.57 91.4004 109.099 91.7223 109.603C91.9648 110.008 92.2528 110.382 92.5802 110.718C92.9411 111.063 93.3618 111.283 93.7975 111.09C93.88 111.052 93.9524 110.994 94.0086 110.921C94.0662 110.848 94.1112 110.766 94.1419 110.677C94.4413 109.801 94.1419 108.61 93.7631 107.637C93.5292 107.041 93.2503 106.464 92.9291 105.913C92.3872 105.068 91.7766 104.272 91.1039 103.534C90.3313 102.658 89.3566 101.639 88.063 100.291C87.5737 99.8109 87.1198 99.2941 86.7049 98.7451C86.3561 98.241 86.1659 97.7584 86.3126 97.322C86.3807 97.1297 86.5001 96.9609 86.657 96.8348C86.8005 96.7162 86.9592 96.6185 87.1287 96.5443C86.7991 96.2406 86.5866 95.8256 86.5298 95.3748C86.5026 95.1937 86.5143 95.0087 86.564 94.8328C86.6136 94.6568 86.7 94.4941 86.8172 94.3559C87.0219 94.1523 87.293 94.034 87.5778 94.0239C87.74 94.0113 87.903 94.0201 88.063 94.05C87.9011 93.7193 87.8306 93.3494 87.8593 92.9804C87.869 92.7108 87.9663 92.4523 88.1355 92.246C88.3048 92.0396 88.5365 91.8973 88.7936 91.8416C88.9226 91.8093 89.0546 91.7913 89.1874 91.7878C89.3134 91.7854 89.439 91.802 89.5602 91.837C89.7237 91.8873 89.8842 91.9474 90.0408 92.0168C90.2205 92.0937 90.4301 92.1859 90.6637 92.2965C90.8973 92.4072 91.1548 92.5378 91.4333 92.6884C91.5336 92.5824 91.6399 92.4548 91.7522 92.3319C91.8571 92.2118 91.9752 92.1045 92.1041 92.0122C92.6491 91.6495 93.3333 91.8032 93.9847 92.1259C94.5793 92.452 95.145 92.831 95.6751 93.2586C96.4781 93.8572 97.2295 94.5256 97.921 95.2565C98.3231 95.6789 98.703 96.1232 99.0589 96.5873C101.106 99.2568 102.275 100.89 103.16 102.065C103.882 103.07 104.684 104.013 105.556 104.885C105.969 105.295 106.484 105.776 107.108 106.294C107.809 106.874 108.541 107.415 109.3 107.912Z" fill="#D87D61" stroke="black" stroke-width="0.58203" stroke-miterlimit="10" stroke-linecap="round"/>
<path d="M87.1294 96.5447C87.7283 96.9443 88.3542 97.3931 89.004 97.9002C89.6538 98.4074 90.3216 98.976 90.9998 99.5907C91.8742 100.398 92.7044 101.254 93.4868 102.156C94.2115 102.993 94.8343 103.8 95.3704 104.549" stroke="black" stroke-width="0.58203" stroke-miterlimit="10" stroke-linecap="round"/>
<path d="M88.063 94.054C88.7353 94.4797 89.4554 94.9761 90.2056 95.5447C90.9557 96.1134 91.7373 96.765 92.5263 97.498C93.4389 98.3451 94.3009 99.2478 95.1076 100.201C95.8563 101.08 96.4791 101.924 97.0092 102.694" stroke="black" stroke-width="0.58203" stroke-miterlimit="10" stroke-linecap="round"/>
<path d="M91.4336 92.6929C92.1463 93.2708 92.8994 93.9224 93.6795 94.6678C94.4596 95.4131 95.2486 96.2338 96.0422 97.1497C96.5902 97.7814 97.0903 98.4053 97.5559 99.0139C98.0216 99.6225 98.4393 100.217 98.8241 100.79" stroke="black" stroke-width="0.58203" stroke-miterlimit="10" stroke-linecap="round"/>
<path d="M126.737 112.946L118.019 110.427L109.302 107.908" stroke="black" stroke-width="0.58203" stroke-miterlimit="10" stroke-linecap="round"/>
<path d="M51.3813 50.6249C51.3813 50.3344 51.3978 50.0255 51.4247 49.7028C51.4517 49.3801 51.4921 49.0343 51.5505 48.6777C51.6513 48.0574 51.7969 47.4455 51.9862 46.8474C52.1425 46.3529 52.3275 45.8684 52.5402 45.3966C52.2682 45.2747 51.9818 45.19 51.6883 45.1446C51.2903 45.0756 50.8813 45.1291 50.5129 45.2982C49.8212 45.6394 49.3899 46.4386 49.2627 47.3115C49.1354 48.1844 49.3121 49.1311 49.8406 49.7704C50.0633 50.0326 50.3386 50.2423 50.6477 50.3851C50.882 50.4948 51.1283 50.5753 51.3813 50.6249Z" fill="#F2B3C1" stroke="black" stroke-width="0.58203" stroke-miterlimit="10" stroke-linecap="round"/>
<path d="M115.456 99.251L116.787 104.793L118.118 110.333" stroke="black" stroke-width="0.58203" stroke-miterlimit="10" stroke-linecap="round"/>
<path d="M53.0371 44.4379C53.9018 44.9528 54.8687 45.2606 55.8654 45.3385C57.5499 45.4814 59.7763 45.005 61.9414 42.5215C62.1017 43.5506 62.4604 44.5365 62.9964 45.4215C63.5325 46.3066 64.2351 47.073 65.0632 47.676C66.6009 48.7826 68.459 49.2129 70.1149 48.761C71.3547 48.4229 72.4597 47.5992 73.2802 46.465C74.143 45.2492 74.6457 43.8036 74.728 42.3017C74.7143 40.6499 74.1901 39.0452 73.2308 37.7189C72.3514 36.4881 71.0756 35.6169 69.6298 35.26C68.3251 34.9793 66.9668 35.1411 65.7594 35.721C65.1016 36.0203 64.4878 36.4124 63.9357 36.886C63.0642 36.3871 62.1251 36.0245 61.1493 35.8102C59.5921 35.4629 57.5559 35.3983 55.4762 36.4341C53.9036 37.2236 52.5992 38.4811 51.733 40.0426C50.8455 41.6377 50.4235 43.4611 50.5172 45.2955C50.6246 45.2496 50.7352 45.2121 50.8481 45.1833C51.2439 45.0792 51.6594 45.0829 52.0534 45.1941C52.2231 45.2418 52.3877 45.3072 52.5445 45.3892C52.5755 45.3185 52.6084 45.2463 52.6433 45.1725C52.6778 45.1003 52.7152 45.0189 52.7541 44.9497C52.7931 44.8805 52.8485 44.7684 52.8949 44.6823C52.9413 44.5962 52.9892 44.5163 53.0371 44.4379Z" fill="#ECE7E1" stroke="black" stroke-width="0.58203" stroke-miterlimit="10" stroke-linecap="round"/>
<path d="M67.8926 56.3706C68.0318 56.137 68.1711 55.8911 68.3073 55.6299C68.4436 55.3686 68.5783 55.0951 68.7086 54.8077C68.9897 54.1894 69.2307 53.5528 69.4303 52.902C69.5997 52.3467 69.7396 51.7824 69.8495 51.2115C70.1115 51.2279 70.3702 51.2795 70.6191 51.3652C70.9411 51.4733 71.2304 51.6649 71.4591 51.9215C71.9577 52.5009 71.9442 53.383 71.6223 54.2191C71.3004 55.0551 70.67 55.8466 69.9348 56.2477C69.5643 56.4402 69.1521 56.5327 68.737 56.5166C68.4507 56.5044 68.167 56.4553 67.8926 56.3706Z" fill="#F2B3C1" stroke="black" stroke-width="0.58203" stroke-miterlimit="10" stroke-linecap="round"/>
<path d="M117.458 78.9673C117.553 78.5954 117.608 78.1989 117.674 77.8177C117.721 77.469 117.795 77.1246 117.895 76.7881C118.08 76.2425 118.294 75.577 118.623 75.0391C118.952 74.5013 119.396 74.094 120.036 74.0648C120.036 74.0648 120.307 74.054 120.549 74.4444C120.79 74.8347 120.998 75.6277 120.876 77.2383C120.795 78.3029 120.598 79.3548 120.291 80.375C119.983 81.3966 119.57 82.3816 119.059 83.3134L117.728 85.7539L116.395 88.1913C116.257 88.4442 116.151 88.7137 116.078 88.9936C116.005 89.2736 115.972 89.5629 115.979 89.8526C115.969 90.2537 116.095 90.6458 116.335 90.9622C116.593 91.2696 117.022 91.4509 117.716 91.3864C117.412 91.817 117.155 92.2809 116.951 92.7695C116.651 93.5195 116.501 94.3894 117.142 94.8642C117.411 95.0826 117.748 95.192 118.09 95.1716C118.665 95.1347 119.438 94.7198 120.236 93.206C120.236 93.206 120.625 93.9744 121.293 94.2495C121.96 94.5246 122.902 94.2925 124.01 92.2901C124.154 92.4999 124.355 92.6614 124.588 92.7544C124.821 92.8473 125.076 92.8676 125.32 92.8126C126.166 92.6143 127.396 91.494 128.927 87.8087C129.141 87.2964 129.36 86.7841 129.586 86.2718C129.812 85.7596 130.04 85.2519 130.272 84.7488C131.02 83.1198 132.107 80.2428 132.269 77.1369C132.431 74.031 131.661 70.6961 128.676 68.1495C128.025 67.5901 127.293 67.1384 126.506 66.811C125.722 66.4848 124.888 66.3022 124.042 66.2715C122.69 66.2219 121.353 66.5839 120.201 67.312C118.854 68.1572 117.506 69.6172 116.343 72.0393C115.906 72.9672 115.533 73.9249 115.224 74.9054C114.727 76.4961 114.354 78.4048 114.851 79.6696C114.968 79.9694 115.185 80.2164 115.464 80.3658C115.601 80.4405 115.751 80.4863 115.905 80.5005C116.059 80.5148 116.215 80.4972 116.362 80.4488L116.41 80.4319L116.458 80.4134C116.728 80.2979 116.956 80.0986 117.111 79.8433C117.27 79.5716 117.387 79.276 117.458 78.9673Z" fill="#F2B3C1" stroke="black" stroke-width="0.58203" stroke-miterlimit="10" stroke-linecap="round"/>
<path d="M122.729 81.575C122.308 82.6108 121.839 83.6799 121.322 84.7823C120.802 85.8827 120.23 87.0123 119.601 88.1633C119.29 88.734 118.977 89.2878 118.661 89.8246C118.345 90.361 118.029 90.8835 117.713 91.3876" stroke="black" stroke-width="0.58203" stroke-miterlimit="10" stroke-linecap="round"/>
<path d="M125.293 82.9275C125.293 82.9275 124.42 84.9115 123.347 87.1876C122.273 89.4636 121.017 92.0363 120.231 93.2089" stroke="black" stroke-width="0.58203" stroke-miterlimit="10" stroke-linecap="round"/>
<path d="M127.702 84.1882L125.856 88.2393L124.01 92.2903" stroke="black" stroke-width="0.58203" stroke-miterlimit="10" stroke-linecap="round"/>
<path d="M91.5004 40.5516C91.6501 43.5914 90.7518 46.3916 89.1931 48.4724C87.6345 50.5533 85.3991 51.898 82.8687 52.0271C80.3383 52.1562 77.9861 51.0405 76.2328 49.1317C74.4795 47.223 73.3191 44.5212 73.1724 41.4845C73.0256 38.4477 73.921 35.6445 75.4797 33.5621C77.0383 31.4797 79.2737 30.1365 81.8041 30.0074C84.3345 29.8783 86.6852 30.9941 88.44 32.9028C90.1948 34.8115 91.3537 37.5102 91.5004 40.5516Z" fill="#F2B3C1" stroke="black" stroke-width="0.58203" stroke-miterlimit="10" stroke-linecap="round"/>
<path d="M83.3247 40.9886C83.3307 41.1202 83.2921 41.25 83.2155 41.3557C83.1388 41.4614 83.0288 41.5366 82.9042 41.5685C82.7796 41.6004 82.6481 41.587 82.532 41.5306C82.416 41.4741 82.3226 41.3782 82.2677 41.259C82.2128 41.1399 82.1998 41.0049 82.2309 40.877C82.2621 40.7491 82.3354 40.6363 82.4385 40.5577C82.5416 40.479 82.668 40.4395 82.7963 40.4458C82.9245 40.452 83.0467 40.5037 83.1421 40.5921C83.1964 40.6426 83.2406 40.7036 83.2719 40.7716C83.3032 40.8397 83.3212 40.9134 83.3247 40.9886Z" fill="#040400"/>
<path d="M77.3582 42.8972C77.361 42.9726 77.3492 43.0478 77.3235 43.1185C77.2978 43.1892 77.2587 43.254 77.2085 43.3091C77.147 43.3789 77.0698 43.432 76.9835 43.4638C76.8973 43.4956 76.8047 43.5051 76.714 43.4913C76.6234 43.4776 76.5374 43.4412 76.4638 43.3852C76.3901 43.3292 76.3311 43.2554 76.2918 43.1704C76.2526 43.0854 76.2345 42.9917 76.2389 42.8978C76.2434 42.8038 76.2704 42.7125 76.3176 42.6318C76.3647 42.5511 76.4305 42.4836 76.5091 42.4353C76.5877 42.387 76.6767 42.3593 76.7683 42.3547C76.8414 42.3508 76.9145 42.3617 76.9835 42.3869C77.0524 42.4121 77.1158 42.451 77.1701 42.5014C77.2244 42.5518 77.2684 42.6127 77.2997 42.6807C77.3309 42.7486 77.3488 42.8222 77.3522 42.8972H77.3582Z" fill="#040400"/>
<path d="M80.1335 44.4168L79.5121 44.0679L78.8922 43.719C78.8841 43.7144 78.8772 43.7078 78.8723 43.6997C78.8673 43.6917 78.8644 43.6824 78.8638 43.6729C78.8639 43.6637 78.8663 43.6546 78.8708 43.6465C78.8752 43.6385 78.8816 43.6317 78.8892 43.6268L79.4717 43.3195L80.0556 43.0121L79.6543 41.3539L79.2591 39.7125" stroke="black" stroke-width="0.58203" stroke-miterlimit="10" stroke-linecap="round"/>
<path d="M83.1179 44.8384C83.083 45.1799 82.956 45.5046 82.751 45.7759C82.5369 46.0621 82.2563 46.2887 81.935 46.4352C81.5839 46.5962 81.1973 46.6582 80.8151 46.615C80.4486 46.5761 80.1013 46.4275 79.8164 46.1878" stroke="black" stroke-width="0.58203" stroke-miterlimit="10" stroke-linecap="round"/>
<path d="M81.0688 38.8663L82.7667 38.6588L84.4646 38.4482" stroke="black" stroke-width="0.58203" stroke-miterlimit="10" stroke-linecap="round"/>
<path d="M77.8008 39.7383L76.2451 40.5236L74.688 41.3089" stroke="black" stroke-width="0.58203" stroke-miterlimit="10" stroke-linecap="round"/>
<path d="M91.3777 43.1231C91.4211 42.8357 91.457 42.5283 91.4825 42.201C91.5079 41.8736 91.5229 41.5294 91.5229 41.1667C91.5228 40.0175 91.3717 38.8735 91.0737 37.7657C91.3613 37.6903 91.6574 37.6546 91.9541 37.6596C92.3582 37.6595 92.7532 37.7825 93.089 38.0131C93.7164 38.4649 94.0159 39.3256 94.0024 40.2077C93.9889 41.0898 93.6625 41.995 93.0381 42.536C92.7758 42.7593 92.4693 42.9214 92.1398 43.0109C91.8911 43.08 91.6352 43.1177 91.3777 43.1231Z" fill="#F2B3C1" stroke="black" stroke-width="0.58203" stroke-miterlimit="10" stroke-linecap="round"/>
<path d="M87.0667 42.7169C87.0836 43.0653 86.9823 43.4089 86.78 43.6893C86.5778 43.9696 86.287 44.1693 85.9574 44.2542C85.6278 44.3392 85.2796 44.3042 84.9723 44.1552C84.665 44.0062 84.4176 43.7524 84.2721 43.4371C84.1267 43.1218 84.0923 42.7645 84.1748 42.4261C84.2573 42.0877 84.4515 41.7891 84.7245 41.5812C84.9974 41.3734 85.3321 41.2691 85.6716 41.2862C86.011 41.3032 86.3342 41.4406 86.5861 41.6749C86.7292 41.8074 86.8453 41.9678 86.9278 42.1466C87.0103 42.3254 87.0575 42.5192 87.0667 42.7169Z" fill="#FF6406" stroke="#070707" stroke-width="0.58203" stroke-miterlimit="10" stroke-linecap="round"/>
<path d="M78.2693 45.8997C78.2862 46.2481 78.185 46.5918 77.9827 46.8721C77.7804 47.1525 77.4897 47.3521 77.16 47.4371C76.8304 47.5221 76.4823 47.487 76.175 47.3381C75.8677 47.1891 75.6202 46.9353 75.4748 46.62C75.3293 46.3047 75.2949 45.9474 75.3774 45.609C75.4599 45.2706 75.6542 44.972 75.9271 44.7641C76.2 44.5562 76.5348 44.452 76.8742 44.469C77.2137 44.4861 77.5369 44.6235 77.7887 44.8577C77.9318 44.9903 78.0479 45.1506 78.1304 45.3294C78.2129 45.5083 78.2601 45.7021 78.2693 45.8997Z" fill="#FF6406" stroke="#070707" stroke-width="0.58203" stroke-miterlimit="10" stroke-linecap="round"/>
<path d="M74.1704 46.0164C74.0706 45.7634 73.9738 45.497 73.88 45.2173C73.7871 44.9376 73.6973 44.6441 73.6149 44.3382C73.2876 43.1182 73.1036 41.8624 73.0669 40.5976C72.806 40.571 72.5428 40.5792 72.2839 40.6222C71.9486 40.6745 71.6323 40.8154 71.3661 41.031C70.7806 41.5166 70.6533 42.3895 70.8375 43.2686C71.0217 44.1477 71.5173 45.0329 72.1851 45.5446C72.5211 45.7951 72.9137 45.9538 73.326 46.0057C73.6059 46.0452 73.8896 46.0488 74.1704 46.0164Z" fill="#F2B3C1" stroke="black" stroke-width="0.58203" stroke-miterlimit="10" stroke-linecap="round"/>
<path d="M73.0676 40.6011C73.0676 40.6011 74.5425 40.5197 76.3302 39.4946C78.1179 38.4696 80.2231 36.5009 81.4688 32.7249C82.0557 33.9298 82.8449 35.0191 83.8001 35.943C85.3617 37.4353 87.7169 38.697 90.8896 37.7718C90.9555 37.7534 91.0259 37.7365 91.1007 37.7227C91.1756 37.7088 91.2505 37.695 91.3388 37.6842C91.4546 37.6702 91.5711 37.6625 91.6877 37.6612C91.7955 37.6612 91.8958 37.6612 91.9871 37.6704C92.0466 36.5532 91.9615 35.4328 91.7341 34.3386C91.4017 32.7525 90.686 30.8976 89.1633 29.3884C87.2168 27.4505 84.4843 26.5837 81.7713 26.7266C79.0582 26.8696 76.3556 28.0222 74.4526 30.123C72.584 32.187 71.9687 34.6767 71.8369 36.7206C71.7496 38.0332 71.8454 39.3518 72.1214 40.6365C72.179 40.6204 72.2375 40.6075 72.2966 40.5981C72.3639 40.5857 72.4319 40.5769 72.5002 40.5719C72.6039 40.5643 72.7079 40.5643 72.8116 40.5719C72.8974 40.5767 72.9829 40.5864 73.0676 40.6011Z" fill="#040400" stroke="#040400" stroke-width="0.58203" stroke-miterlimit="10"/>
<path d="M91.0811 21.6144C91.0811 23.1354 90.5673 24.6094 89.6272 25.7852C88.6871 26.961 87.3789 27.7658 85.9254 28.0626C84.472 28.3593 82.9633 28.1296 81.6564 27.4126C80.3495 26.6956 79.3252 25.5356 78.7581 24.1303C78.191 22.7251 78.1161 21.1614 78.5463 19.7059C78.9765 18.2503 79.8851 16.9929 81.1172 16.1478C82.3494 15.3028 83.8289 14.9224 85.3036 15.0715C86.7784 15.2206 88.1572 15.8899 89.2051 16.9654C89.8008 17.5752 90.2732 18.2999 90.5952 19.0977C90.9171 19.8955 91.0823 20.7508 91.0811 21.6144Z" fill="#040400" stroke="#040400" stroke-width="0.58203" stroke-miterlimit="10"/>
<path d="M58.1226 49.8691C58.0919 50.0174 58.1195 50.1722 58.1994 50.2997C58.2793 50.4272 58.4051 50.5172 58.5493 50.5499C58.6573 50.5742 58.7699 50.565 58.8727 50.5235C58.9756 50.482 59.0642 50.4101 59.1272 50.317C59.1903 50.2238 59.225 50.1135 59.227 50.0001C59.2289 49.8867 59.198 49.7752 59.1382 49.6798C59.0784 49.5844 58.9924 49.5093 58.891 49.4641C58.7896 49.4189 58.6775 49.4056 58.5687 49.4259C58.46 49.4462 58.3596 49.4991 58.2801 49.578C58.2007 49.6569 58.1459 49.7582 58.1226 49.8691Z" fill="#040400"/>
<path d="M64.9207 51.8505C64.8896 51.9986 64.9171 52.1534 64.9971 52.2808C65.0771 52.4082 65.2031 52.4977 65.3474 52.5298C65.4188 52.546 65.4927 52.5476 65.5646 52.5344C65.6366 52.5213 65.7054 52.4936 65.7669 52.453C65.8284 52.4124 65.8815 52.3598 65.9231 52.298C65.9647 52.2363 65.994 52.1667 66.0092 52.0933C66.0255 52.0197 66.0274 51.9435 66.0148 51.8691C66.0022 51.7947 65.9754 51.7236 65.9358 51.6599C65.8963 51.5962 65.8449 51.5412 65.7846 51.498C65.7243 51.4548 65.6562 51.4243 65.5843 51.4083C65.5124 51.3923 65.4382 51.391 65.3658 51.4046C65.2935 51.4182 65.2244 51.4463 65.1627 51.4874C65.101 51.5286 65.0479 51.5818 65.0063 51.6441C64.9648 51.7064 64.9357 51.7766 64.9207 51.8505Z" fill="#040400"/>
<path d="M61.7314 52.9655L62.3633 52.6382L62.9966 52.3124C63.0046 52.308 63.0115 52.3016 63.0164 52.2938C63.0214 52.286 63.0244 52.2771 63.0251 52.2678C63.0259 52.2581 63.0242 52.2484 63.0199 52.2397C63.0157 52.231 63.0092 52.2237 63.0011 52.2186L62.4367 51.8851L61.8647 51.5516L62.3139 49.9241L62.7631 48.2982" stroke="black" stroke-width="0.58203" stroke-miterlimit="10" stroke-linecap="round"/>
<path d="M58.623 54.7142C58.7008 55.048 58.8677 55.353 59.1052 55.5948C59.3554 55.851 59.6643 56.0385 60.0035 56.1403C60.3721 56.2531 60.7631 56.2637 61.137 56.1711C61.4952 56.0834 61.8209 55.8906 62.0742 55.6163" stroke="black" stroke-width="0.58203" stroke-miterlimit="10" stroke-linecap="round"/>
<path d="M60.9402 46.3435L59.2304 46.2574L57.522 46.1714" stroke="black" stroke-width="0.58203" stroke-miterlimit="10" stroke-linecap="round"/>
<path d="M65.4038 48.1168L66.964 48.896L68.5226 49.6752" stroke="black" stroke-width="0.58203" stroke-miterlimit="10" stroke-linecap="round"/>
<path d="M55.0575 52.2211C54.9852 52.5623 55.0304 52.9187 55.1855 53.2296C55.3405 53.5404 55.5958 53.7864 55.9077 53.9257C56.2197 54.065 56.5691 54.089 56.8963 53.9935C57.2236 53.898 57.5084 53.6889 57.7024 53.402C57.8963 53.1151 57.9872 52.768 57.9598 52.4199C57.9323 52.0719 57.7881 51.7444 57.5517 51.4932C57.3153 51.2421 57.0014 51.0829 56.6634 51.0427C56.3255 51.0025 55.9844 51.0839 55.6983 51.2729C55.3708 51.4893 55.1403 51.8304 55.0575 52.2211Z" fill="#FF6406" stroke="#070707" stroke-width="0.58203" stroke-miterlimit="10" stroke-linecap="round"/>
<path d="M63.7676 54.822C63.6958 55.1625 63.7412 55.5181 63.896 55.8281C64.0509 56.1381 64.3057 56.3834 64.617 56.5222C64.9283 56.661 65.2768 56.6848 65.6033 56.5895C65.9297 56.4941 66.2139 56.2855 66.4073 55.9993C66.6008 55.713 66.6916 55.3668 66.6643 55.0195C66.6369 54.6723 66.4931 54.3455 66.2574 54.0949C66.0217 53.8442 65.7086 53.6852 65.3715 53.6449C65.0343 53.6046 64.694 53.6855 64.4085 53.8738C64.2461 53.9808 64.1059 54.1196 63.9959 54.2824C63.886 54.4451 63.8084 54.6285 63.7676 54.822Z" fill="#FF6406" stroke="#070707" stroke-width="0.58203" stroke-miterlimit="10" stroke-linecap="round"/>
<path d="M67.3345 50.5511L66.4571 50.2975L65.5812 50.0439C65.333 49.9724 65.0736 49.9515 64.8176 49.9824C64.5612 50.0134 64.3133 50.0965 64.0884 50.2268C63.9288 50.3178 63.7826 50.4317 63.6542 50.5649C63.5288 50.6974 63.4215 50.8469 63.3353 51.009L62.4369 50.7247L61.5386 50.4419C61.5865 49.9692 61.4704 49.4943 61.2108 49.1007C60.9512 48.7072 60.5646 48.4202 60.1192 48.2904L58.9932 47.963L57.8703 47.6372C57.3726 47.5051 56.8443 47.5783 56.3986 47.8412C55.9529 48.1041 55.6252 48.5357 55.4858 49.0436C55.3464 49.5514 55.4063 50.0951 55.6528 50.5582C55.8992 51.0212 56.3125 51.3668 56.8042 51.5208L57.9272 51.8466L59.0486 52.1709C59.1288 52.1939 59.2103 52.2119 59.2927 52.2247C59.5461 52.2634 59.8045 52.2509 60.0533 52.1878C60.2243 52.1443 60.389 52.0776 60.5429 51.9895C60.7183 51.8887 60.8774 51.7607 61.0145 51.6099C61.1505 51.4609 61.2636 51.2914 61.3499 51.1074L62.2303 51.3856L63.1092 51.6622C63.0725 51.885 63.0725 52.1125 63.1092 52.3353C63.1481 52.5591 63.223 52.7746 63.3308 52.9731C63.4573 53.204 63.6267 53.4071 63.8294 53.5709C64.0314 53.7355 64.2636 53.8567 64.5121 53.9275L65.3895 54.181L66.2669 54.4346C66.3465 54.4584 66.4275 54.4764 66.5095 54.4884C66.5893 54.5008 66.6698 54.508 66.7506 54.5099C67.2291 54.5217 67.6953 54.3539 68.0618 54.038C68.4284 53.722 68.67 53.2797 68.7415 52.7939C68.813 52.3082 68.7093 51.8123 68.45 51.3994C68.1907 50.9865 67.7935 50.6848 67.333 50.5511H67.3345ZM60.212 51.3856C60.0633 51.4678 59.9007 51.52 59.7329 51.5392C59.5641 51.5591 59.3933 51.545 59.2298 51.4977L58.1083 51.1781L56.9854 50.8538C56.6558 50.7584 56.3766 50.5326 56.2093 50.2259C56.0419 49.9193 56.0001 49.5569 56.093 49.2186C56.1859 48.8803 56.406 48.5938 56.7047 48.422C57.0035 48.2502 57.3565 48.2073 57.6861 48.3027L58.8091 48.6269L59.9305 48.9512C60.0942 48.9979 60.2473 49.0773 60.381 49.1847C60.5148 49.2922 60.6266 49.4257 60.71 49.5776C60.7935 49.7295 60.8469 49.8968 60.8673 50.0699C60.8877 50.243 60.8746 50.4185 60.8289 50.5864C60.7833 50.7542 60.7054 50.911 60.5998 51.0474C60.4938 51.1856 60.3619 51.3005 60.212 51.3856ZM68.0442 52.8532C67.952 53.1923 67.7324 53.4799 67.4336 53.6528C67.1349 53.8257 66.7815 53.8698 66.4511 53.7753L65.5812 53.5156L64.7038 53.262C64.5405 53.2155 64.3878 53.1361 64.2547 53.0284C64.1215 52.9208 64.0106 52.7871 63.9282 52.635C63.8444 52.4835 63.7909 52.3163 63.771 52.1432C63.7516 51.97 63.7653 51.7946 63.8114 51.6268C63.8567 51.4591 63.934 51.3024 64.039 51.1658C64.1449 51.0291 64.2755 50.9148 64.4238 50.8292C64.7224 50.6577 65.075 50.6146 65.4045 50.7093L66.2819 50.9629L67.1593 51.2165C67.323 51.2634 67.4762 51.3429 67.6099 51.4505C67.7437 51.5581 67.8555 51.6918 67.9389 51.8438C68.0224 51.9958 68.0758 52.1632 68.0962 52.3364C68.1165 52.5096 68.1035 52.6852 68.0577 52.8532H68.0442Z" fill="#84A1E5" stroke="#070707" stroke-width="0.58203" stroke-miterlimit="10" stroke-linecap="round"/>
<path d="M44.2104 106.675C44.0662 106.496 43.9018 106.335 43.7208 106.196C43.4535 105.984 43.1483 105.827 42.8224 105.735C42.2188 105.583 41.5823 105.655 41.0257 105.939C40.6716 106.112 40.3454 106.339 40.0585 106.612L39.9821 106.686L39.9043 106.76L36.191 110.192L32.4733 113.627L32.3416 113.742L32.2083 113.856C31.928 114.099 31.6981 114.397 31.532 114.733C31.3658 115.069 31.2669 115.436 31.2411 115.812C31.2078 116.178 31.2496 116.547 31.3637 116.895C31.4778 117.243 31.6618 117.563 31.9037 117.834C32.1456 118.105 32.4401 118.321 32.7683 118.468C33.0964 118.615 33.4509 118.69 33.8089 118.687C34.1763 118.695 34.5415 118.627 34.883 118.488C35.2245 118.349 35.5354 118.141 35.7973 117.876L35.92 117.748L36.0443 117.624L39.7171 114.158L43.3884 110.691C43.7006 110.39 43.9724 110.047 44.1969 109.672C44.5413 109.093 44.8228 108.324 44.6177 107.521C44.583 107.388 44.5369 107.258 44.4799 107.133C44.4063 106.971 44.316 106.818 44.2104 106.675Z" fill="#ECE7E1" stroke="black" stroke-width="0.58203" stroke-miterlimit="10" stroke-linecap="round"/>
<path d="M59.9071 76.1332C59.8846 75.9272 59.8667 75.7151 59.8547 75.4938C59.8427 75.2725 59.8367 75.0435 59.8382 74.8069C59.8408 74.1317 59.9009 73.458 60.0179 72.7936C60.1146 72.239 60.2492 71.6921 60.4206 71.1569C60.1923 71.0805 59.9552 71.035 59.7154 71.0217C59.4056 71.0019 59.0961 71.065 58.8171 71.2045C58.2002 71.5242 57.8004 72.2527 57.6792 73.0487C57.5579 73.8448 57.7151 74.7116 58.2107 75.3033C58.4635 75.5969 58.785 75.8196 59.145 75.9503C59.3906 76.0436 59.6466 76.105 59.9071 76.1332Z" fill="#D87D61" stroke="black" stroke-width="0.58203" stroke-miterlimit="10" stroke-linecap="round"/>
<path d="M51.4102 110.856L49.4728 108.976L47.5353 107.095C46.9791 106.663 46.3245 106.385 45.6338 106.287C44.5228 106.144 43.0884 106.523 41.8142 108.618L39.2569 113.13L36.6981 117.642C36.3708 118.263 36.2831 118.987 36.4525 119.671C36.5314 120.014 36.6769 120.338 36.8802 120.622C37.0835 120.906 37.3405 121.146 37.6359 121.326C37.9313 121.506 38.259 121.623 38.5995 121.67C38.94 121.718 39.2863 121.694 39.6177 121.601C39.9736 121.51 40.3078 121.345 40.6005 121.118C40.8933 120.891 41.1385 120.606 41.3216 120.28L42.9821 117.667L44.6426 115.054L48.0264 112.949L51.4102 110.856Z" fill="#ECE7E1" stroke="black" stroke-width="0.58203" stroke-miterlimit="10" stroke-linecap="round"/>
<path d="M30.9474 93.1134C30.9475 93.4756 30.8252 93.8265 30.6014 94.1066C30.3777 94.3866 30.0663 94.5784 29.7203 94.6493C29.3742 94.7201 29.015 94.6657 28.7036 94.4953C28.3923 94.3248 28.1482 94.0489 28.0128 93.7144C27.8774 93.38 27.8591 93.0077 27.9611 92.661C28.0631 92.3142 28.2789 92.0145 28.572 91.8128C28.8651 91.6111 29.2172 91.5199 29.5684 91.5547C29.9196 91.5896 30.2482 91.7482 30.4982 92.0038C30.641 92.149 30.7542 92.3218 30.8313 92.5123C30.9084 92.7028 30.9479 92.9071 30.9474 93.1134Z" fill="#040400" stroke="#040400" stroke-width="0.58203" stroke-miterlimit="10"/>
<path d="M44.4336 115.399L45.2227 114.089L46.0132 112.778" stroke="black" stroke-width="0.58203" stroke-miterlimit="10" stroke-linecap="round"/>
<path d="M110.526 91.7926C110.526 91.6389 110.141 91.499 109.503 91.3899C108.66 91.2619 107.81 91.1906 106.958 91.1763C106.946 90.3051 106.857 89.4369 106.693 88.5821C106.554 87.929 106.371 87.534 106.171 87.534C105.97 87.534 105.786 87.929 105.646 88.5821C105.483 89.437 105.394 90.3052 105.381 91.1763C104.529 91.1906 103.679 91.262 102.836 91.3899C102.198 91.499 101.813 91.6389 101.813 91.7926C101.813 91.9462 102.198 92.0861 102.836 92.1952C103.679 92.3231 104.529 92.3945 105.381 92.4088C105.394 93.2799 105.483 94.1481 105.646 95.003C105.786 95.6561 105.97 96.0511 106.171 96.0511C106.371 96.0511 106.554 95.6561 106.693 95.003C106.857 94.1482 106.946 93.28 106.958 92.4088C107.81 92.3945 108.66 92.3232 109.503 92.1952C110.141 92.0861 110.526 91.9462 110.526 91.7926Z" fill="url(#paint0_linear_207_316)" stroke="black" stroke-width="0.58203" stroke-miterlimit="10" stroke-linecap="round"/>
<path d="M28.7459 48.806C28.7459 48.6185 28.2757 48.4463 27.4971 48.3142C26.4687 48.1574 25.4314 48.0706 24.3918 48.0544C24.3758 46.9914 24.2676 45.9319 24.0684 44.8886C23.8977 44.091 23.6746 43.6084 23.4306 43.6084C23.1865 43.6084 22.9619 44.091 22.7912 44.8886C22.592 45.9319 22.4838 46.9914 22.4678 48.0544C21.4283 48.0706 20.3909 48.1574 19.3625 48.3142C18.5839 48.4463 18.1138 48.6215 18.1138 48.806C18.1138 48.9904 18.5839 49.164 19.3625 49.2977C20.3876 49.4527 21.4214 49.5389 22.4573 49.5559C22.4733 50.619 22.5815 51.6785 22.7808 52.7218C22.9514 53.5194 23.1745 54.002 23.4201 54.002C23.6656 54.002 23.8872 53.5194 24.0579 52.7218C24.2572 51.6785 24.3654 50.619 24.3813 49.5559C25.4208 49.5394 26.4581 49.4531 27.4867 49.2977C28.2682 49.164 28.7459 48.9919 28.7459 48.806Z" fill="url(#paint1_linear_207_316)" stroke="black" stroke-width="0.58203" stroke-miterlimit="10" stroke-linecap="round"/>
<path d="M114.042 36.9558C112.603 37.2632 111.718 37.5828 111.118 38.1976C110.517 38.8123 110.206 39.7221 109.908 41.199C109.902 41.2319 109.885 41.2617 109.86 41.2832C109.835 41.3046 109.804 41.3164 109.771 41.3164C109.738 41.3164 109.707 41.3046 109.682 41.2832C109.657 41.2617 109.64 41.2319 109.634 41.199C109.335 39.7221 109.023 38.8123 108.424 38.1976C107.825 37.5828 106.94 37.2601 105.5 36.9558C105.468 36.9498 105.439 36.9325 105.418 36.9068C105.397 36.8811 105.386 36.8487 105.386 36.8152C105.386 36.7817 105.397 36.7493 105.418 36.7236C105.439 36.6979 105.468 36.6806 105.5 36.6746C106.94 36.3672 107.825 36.0475 108.424 35.4328C109.023 34.8181 109.338 33.9083 109.634 32.4314C109.64 32.3985 109.657 32.3687 109.682 32.3472C109.707 32.3258 109.738 32.314 109.771 32.314C109.804 32.314 109.835 32.3258 109.86 32.3472C109.885 32.3687 109.902 32.3985 109.908 32.4314C110.207 33.9083 110.519 34.8165 111.118 35.4328C111.717 36.0491 112.603 36.3703 114.042 36.6746C114.074 36.6806 114.103 36.6979 114.124 36.7236C114.145 36.7493 114.156 36.7817 114.156 36.8152C114.156 36.8487 114.145 36.8811 114.124 36.9068C114.103 36.9325 114.074 36.9498 114.042 36.9558Z" fill="url(#paint2_linear_207_316)" stroke="black" stroke-width="0.58203" stroke-miterlimit="10" stroke-linecap="round"/>
<path d="M19.9677 57.3882C19.1382 57.5711 18.6202 57.7693 18.2638 58.1351C17.9075 58.5009 17.7143 59.0326 17.5362 59.884C17.5311 59.9093 17.5177 59.932 17.4982 59.9483C17.4786 59.9647 17.4543 59.9736 17.4291 59.9736C17.4039 59.9736 17.3795 59.9647 17.36 59.9483C17.3405 59.932 17.3271 59.9093 17.322 59.884C17.1439 59.0326 16.9507 58.5009 16.5944 58.1351C16.238 57.7693 15.72 57.5711 14.8905 57.3882C14.8658 57.383 14.8437 57.3692 14.8278 57.3492C14.8119 57.3292 14.8032 57.3041 14.8032 57.2783C14.8032 57.2525 14.8119 57.2275 14.8278 57.2074C14.8437 57.1874 14.8658 57.1736 14.8905 57.1684C15.72 56.9856 16.238 56.7873 16.5944 56.4215C16.9507 56.0558 17.1439 55.524 17.322 54.6726C17.3271 54.6473 17.3405 54.6246 17.36 54.6083C17.3795 54.592 17.4039 54.5831 17.4291 54.5831C17.4543 54.5831 17.4786 54.592 17.4982 54.6083C17.5177 54.6246 17.5311 54.6473 17.5362 54.6726C17.7143 55.524 17.9075 56.0558 18.2638 56.4215C18.6202 56.7873 19.1382 56.9856 19.9677 57.1684C19.9924 57.1736 20.0145 57.1874 20.0304 57.2074C20.0463 57.2275 20.055 57.2525 20.055 57.2783C20.055 57.3041 20.0463 57.3292 20.0304 57.3492C20.0145 57.3692 19.9924 57.383 19.9677 57.3882Z" fill="url(#paint3_linear_207_316)" stroke="black" stroke-width="0.58203" stroke-miterlimit="10" stroke-linecap="round"/>
<path d="M110.525 100.743C110.144 100.744 109.775 100.608 109.48 100.36C109.185 100.113 108.983 99.7672 108.908 99.3835C108.833 98.9997 108.891 98.6013 109.07 98.2561C109.25 97.9109 109.54 97.6404 109.893 97.4906C110.245 97.3409 110.637 97.3212 111.002 97.4349C111.366 97.5487 111.682 97.7888 111.893 98.1143C112.105 98.4399 112.2 98.8307 112.162 99.2201C112.124 99.6095 111.956 99.9734 111.686 100.25C111.378 100.565 110.961 100.742 110.525 100.743ZM110.525 98.2948C110.352 98.2944 110.184 98.3558 110.05 98.4685C109.915 98.5812 109.824 98.7383 109.79 98.9128C109.756 99.0874 109.782 99.2686 109.864 99.4255C109.945 99.5825 110.078 99.7054 110.238 99.7734C110.398 99.8414 110.576 99.8501 110.742 99.7981C110.908 99.7462 111.051 99.6367 111.147 99.4885C111.243 99.3403 111.286 99.1624 111.269 98.9854C111.251 98.8083 111.174 98.643 111.051 98.5176C110.982 98.4467 110.9 98.3906 110.81 98.3523C110.72 98.3141 110.623 98.2945 110.525 98.2948Z" fill="url(#paint4_linear_207_316)" stroke="black" stroke-width="0.58203" stroke-miterlimit="10" stroke-linecap="round"/>
<path d="M43.9658 96.078C44.0811 96.1272 44.2024 96.1764 44.3326 96.2225C44.4629 96.2686 44.5977 96.3147 44.7399 96.3577C44.9435 96.4176 45.1397 96.4668 45.3253 96.5114C45.511 96.556 45.6892 96.5806 45.8539 96.6021" fill="#ECE7E1"/>
<path d="M43.9658 96.078C44.0811 96.1272 44.2024 96.1764 44.3326 96.2225C44.4629 96.2686 44.5977 96.3147 44.7399 96.3577C44.9435 96.4176 45.1397 96.4668 45.3253 96.5114C45.511 96.556 45.6892 96.5806 45.8539 96.6021" stroke="black" stroke-width="0.58203" stroke-miterlimit="10" stroke-linecap="round"/>
<path d="M93.5795 87.9179C94.5572 84.9718 95.3613 82.5528 95.9198 80.8715L96.7927 78.242L97.8408 79.6036C98.7391 80.7701 100.386 82.9093 103.381 86.8006L104.412 77.7179L105.442 68.6353C105.354 69.6449 105.128 70.637 104.773 71.5829C104.136 73.3425 103.029 74.8826 101.579 76.0274C100.883 76.5765 100.12 77.0301 99.3096 77.3767C97.9277 77.9772 96.417 78.1966 94.9271 78.013C92.6288 77.721 90.9279 76.5223 89.778 75.3466C89.0421 74.6007 88.417 73.7479 87.9229 72.8154C88.7434 75.0254 89.5659 77.2343 90.3904 79.4422C91.2148 81.6501 92.0438 83.857 92.8773 86.0629C92.9671 86.2996 93.0974 86.6438 93.2262 86.985C93.3549 87.3262 93.4852 87.6796 93.5795 87.9179Z" fill="#DBCAF4" stroke="black" stroke-width="0.58203" stroke-miterlimit="10" stroke-linecap="round"/>
<path d="M112.356 108.794L110.377 117.985L108.397 127.177" fill="#DBCAF4"/>
<path d="M112.356 108.794L110.377 117.985L108.397 127.177" stroke="black" stroke-width="0.58203" stroke-miterlimit="10" stroke-linecap="round"/>
<path d="M61.7021 42.7887C61.741 42.7504 61.78 42.7089 61.8203 42.6644C61.8607 42.6198 61.8981 42.5753 61.9385 42.5261C62.0315 42.4104 62.1174 42.2888 62.1959 42.1622C62.2627 42.0536 62.3236 41.9413 62.3784 41.8259" stroke="#070707" stroke-width="0.58203" stroke-miterlimit="10" stroke-linecap="round"/>
<path d="M23.8507 88.3464C23.7219 87.9853 23.6246 87.5934 23.5288 87.2215C23.4486 86.8783 23.342 86.5422 23.2099 86.2164C22.9778 85.6908 22.7023 85.0484 22.325 84.5459C21.9477 84.0433 21.4685 83.6791 20.8277 83.7129C20.8277 83.7129 20.5567 83.7267 20.3531 84.1401C20.1494 84.5535 20.0147 85.3696 20.2827 86.9525C20.4625 88.0069 20.7552 89.0378 21.1556 90.0262C21.557 91.0131 22.0589 91.9538 22.6529 92.8324L24.2025 95.1377L25.7522 97.4429C25.9144 97.6806 26.0457 97.9389 26.143 98.2113C26.2414 98.4828 26.3009 98.7676 26.3197 99.0566C26.3666 99.4551 26.2778 99.858 26.0681 100.197C25.8376 100.521 25.4288 100.749 24.7326 100.753C25.075 101.153 25.3733 101.59 25.622 102.056C25.9918 102.774 26.2209 103.626 25.622 104.16C25.3749 104.403 25.0492 104.545 24.7071 104.557C24.1322 104.575 23.3251 104.237 22.3909 102.808C22.3909 102.808 22.0734 103.613 21.4341 103.948C20.7948 104.283 19.835 104.147 18.5489 102.258C18.4247 102.48 18.2392 102.661 18.0158 102.776C17.7924 102.891 17.5408 102.936 17.2927 102.905C16.4317 102.79 15.1052 101.794 13.2411 98.2728C12.9825 97.781 12.717 97.2928 12.4445 96.8082C12.1735 96.3241 11.898 95.84 11.6225 95.359C10.7331 93.8083 9.3766 91.0559 8.93491 87.9822C8.49322 84.9085 8.94839 81.5106 11.6824 78.6859C12.279 78.0679 12.9661 77.5493 13.7187 77.1491C14.4692 76.7478 15.2826 76.4851 16.1218 76.373C17.4642 76.1902 18.8292 76.4196 20.0446 77.0323C21.4655 77.7423 22.9463 79.0655 24.3208 81.3646C24.8411 82.2459 25.3014 83.163 25.6983 84.1094C26.3391 85.6462 26.8857 87.5089 26.5068 88.8198C26.4187 89.1292 26.2253 89.3958 25.9618 89.5713C25.8329 89.6584 25.6885 89.7183 25.5368 89.7476C25.3852 89.7768 25.2294 89.7749 25.0784 89.7419L25.029 89.7296L24.9796 89.7142C24.7005 89.6255 24.4554 89.4492 24.2789 89.2101C24.0913 88.9481 23.9466 88.6563 23.8507 88.3464Z" fill="#F2B3C1" stroke="black" stroke-width="0.58203" stroke-miterlimit="10" stroke-linecap="round"/>
<path d="M18.8379 91.4543C19.353 92.4441 19.9174 93.4661 20.5343 94.5111C21.1512 95.5561 21.8264 96.6242 22.5571 97.7092C22.9214 98.2461 23.2848 98.7666 23.6471 99.2707C24.0095 99.7747 24.3733 100.263 24.7341 100.737" stroke="black" stroke-width="0.58203" stroke-miterlimit="10" stroke-linecap="round"/>
<path d="M16.4102 93.0409C16.4102 93.0409 17.4582 94.9312 18.7354 97.095C20.0126 99.2589 21.5039 101.695 22.3917 102.781" stroke="black" stroke-width="0.58203" stroke-miterlimit="10" stroke-linecap="round"/>
<path d="M14.1294 94.5344L16.3394 98.3887L18.5493 102.243" stroke="black" stroke-width="0.58203" stroke-miterlimit="10" stroke-linecap="round"/>
<path d="M34.6304 56.6511C35.2023 57.7729 35.7638 58.9671 36.2998 60.2334C36.8358 61.4998 37.3479 62.846 37.8196 64.2507C39.3825 68.939 40.3247 73.8217 40.6209 78.7676C40.8515 82.6099 40.7226 86.466 40.2361 90.283" stroke="black" stroke-width="0.58203" stroke-miterlimit="10" stroke-linecap="round"/>
<path d="M48.3239 52.4636C48.2192 52.6873 48.1394 52.9224 48.0858 53.1644C48.004 53.5302 47.9868 53.9081 48.0349 54.2802C48.1189 54.8962 48.3765 55.4737 48.776 55.9415C48.9892 56.1979 49.2367 56.4219 49.5112 56.6069C49.4311 56.8848 49.3908 57.1731 49.3914 57.4629C49.3845 57.9852 49.5252 58.4983 49.7965 58.9401C50.0679 59.382 50.4581 59.7337 50.9201 59.9526C51.3617 60.1644 51.8492 60.255 52.3351 60.2154C52.3359 60.5193 52.3834 60.8211 52.4758 61.1098C52.651 61.7044 53.0268 62.2155 53.5359 62.5514C53.9242 62.8036 54.3706 62.9457 54.8298 62.9633C55.2891 62.9808 55.7446 62.8732 56.1501 62.6513C56.2238 62.9285 56.32 63.1989 56.4376 63.4596C56.5953 63.8082 56.7912 64.1371 57.0215 64.4401C57.1549 64.6157 57.3 64.7816 57.4557 64.9365C57.5861 65.0674 57.7235 65.1905 57.8675 65.3054" fill="#F6C34C"/>
<path d="M48.3239 52.4636C48.2192 52.6873 48.1394 52.9224 48.0858 53.1644C48.004 53.5302 47.9868 53.9081 48.0349 54.2802C48.1189 54.8962 48.3765 55.4737 48.776 55.9415C48.9892 56.1979 49.2367 56.4219 49.5112 56.6069C49.4311 56.8848 49.3908 57.1731 49.3914 57.4629C49.3845 57.9852 49.5252 58.4983 49.7965 58.9401C50.0679 59.382 50.4581 59.7337 50.9201 59.9526C51.3617 60.1644 51.8492 60.255 52.3351 60.2154C52.3359 60.5193 52.3834 60.8211 52.4758 61.1098C52.651 61.7044 53.0268 62.2155 53.5359 62.5514C53.9242 62.8036 54.3706 62.9457 54.8298 62.9633C55.2891 62.9808 55.7446 62.8732 56.1501 62.6513C56.2238 62.9285 56.32 63.1989 56.4376 63.4596C56.5953 63.8082 56.7912 64.1371 57.0215 64.4401C57.1549 64.6157 57.3 64.7816 57.4557 64.9365C57.5861 65.0674 57.7235 65.1905 57.8675 65.3054" stroke="#070707" stroke-width="0.58203" stroke-miterlimit="10" stroke-linecap="round"/>
<path d="M32.5352 106.206L35.5941 102.379L38.6515 98.5527" fill="#F6C34C"/>
<path d="M32.5352 106.206L35.5941 102.379L38.6515 98.5527" stroke="#070707" stroke-width="0.58203" stroke-miterlimit="10" stroke-linecap="round"/>
<path d="M58.4121 56.961C58.5177 57.1763 58.6716 57.3628 58.8613 57.505C59.1742 57.7402 59.6668 57.9031 60.384 57.6111" stroke="black" stroke-width="0.58203" stroke-miterlimit="10" stroke-linecap="round"/>
<path d="M93.6387 76.2356C93.8164 75.8928 94.0654 75.5943 94.3678 75.3611C94.6787 75.12 95.0418 74.9598 95.4261 74.8939C95.8104 74.8281 96.2045 74.8587 96.5748 74.9831C96.9553 75.1076 97.3054 75.314 97.6019 75.5886" stroke="black" stroke-width="0.58203" stroke-miterlimit="10" stroke-linecap="round"/>
<path d="M39.3415 118.511C39.1677 118.711 39.0169 118.931 38.8923 119.166C38.6985 119.527 38.5706 119.921 38.515 120.329C38.4837 120.566 38.4772 120.805 38.4955 121.042C38.5097 121.224 38.5377 121.404 38.5794 121.582" stroke="black" stroke-width="0.58203" stroke-miterlimit="10" stroke-linecap="round"/>
<path d="M37.6387 117.883C37.4485 118.108 37.2916 118.362 37.173 118.634C36.889 119.257 36.7915 119.952 36.8931 120.632" stroke="black" stroke-width="0.58203" stroke-miterlimit="10" stroke-linecap="round"/>
<path d="M32.4121 118.276C32.4361 118.127 32.4712 117.981 32.5169 117.838C32.5711 117.663 32.6403 117.494 32.7235 117.332C32.9184 116.951 33.1857 116.614 33.5096 116.341C33.7216 116.16 33.9532 116.006 34.1998 115.88" stroke="black" stroke-width="0.58203" stroke-miterlimit="10" stroke-linecap="round"/>
<path d="M31.4014 116.989C31.4469 116.794 31.5085 116.604 31.5855 116.42C31.6918 116.165 31.8265 115.923 31.9868 115.699C32.1681 115.447 32.381 115.221 32.6201 115.026C32.7865 114.89 32.9644 114.77 33.1517 114.667" stroke="black" stroke-width="0.58203" stroke-miterlimit="10" stroke-linecap="round"/>
<defs>
<linearGradient id="paint0_linear_207_316" x1="106.171" y1="87.534" x2="106.171" y2="96.0511" gradientUnits="userSpaceOnUse">
<stop offset="0.26" stop-color="#FEC2D9"/>
<stop offset="0.75" stop-color="#A4C2FF"/>
</linearGradient>
<linearGradient id="paint1_linear_207_316" x1="23.4231" y1="43.6084" x2="23.4231" y2="54.002" gradientUnits="userSpaceOnUse">
<stop offset="0.31" stop-color="#FEC2D9"/>
<stop offset="0.75" stop-color="#A4C2FF"/>
</linearGradient>
<linearGradient id="paint2_linear_207_316" x1="109.772" y1="32.3161" x2="109.772" y2="41.3143" gradientUnits="userSpaceOnUse">
<stop offset="0.31" stop-color="#FEC2D9"/>
<stop offset="0.88" stop-color="#A4C2FF"/>
</linearGradient>
<linearGradient id="paint3_linear_207_316" x1="17.4283" y1="54.5835" x2="17.4283" y2="59.9732" gradientUnits="userSpaceOnUse">
<stop offset="0.31" stop-color="#FEC2D9"/>
<stop offset="0.75" stop-color="#A4C2FF"/>
</linearGradient>
<linearGradient id="paint4_linear_207_316" x1="110.525" y1="97.3727" x2="110.525" y2="100.743" gradientUnits="userSpaceOnUse">
<stop offset="0.22" stop-color="#FEC2D9"/>
<stop offset="0.75" stop-color="#A4C2FF"/>
</linearGradient>
</defs>
</svg>
