<svg width="138" height="138" viewBox="0 0 138 138" fill="none" xmlns="http://www.w3.org/2000/svg">
<path d="M120.047 129.2L86.2717 129.086L52.4974 128.972C40.526 117.956 31.6501 109.796 25.7649 104.384L16.9895 96.3127C16.9895 96.3127 17.0143 90.5969 17.0611 79.493C17.1079 68.3891 17.1781 51.8999 17.269 30.3503H70.2493C70.2493 30.3503 79.2877 49.6417 88.3275 68.9316L106.407 107.513C109.238 112.369 111.903 116.69 114.231 120.348C116.559 124.005 118.557 126.998 120.047 129.2Z" fill="url(#paint0_linear_207_475)" stroke="black" stroke-width="0.413091" stroke-miterlimit="10" stroke-linecap="round"/>
<path d="M70.5288 126.093H43.7591H16.9895V116.558V107.023H43.7591H70.5288V116.558V126.093Z" fill="#F6991A" stroke="#070707" stroke-width="0.413091" stroke-miterlimit="10" stroke-linecap="round"/>
<path d="M68.5406 120.499H43.7592H18.9766V116.075V111.65H43.7592H68.5406V116.075V120.499Z" fill="#F6991A" stroke="#070707" stroke-width="0.413091" stroke-miterlimit="10" stroke-linecap="round"/>
<path d="M18.9766 113.357H43.7592H68.5406" fill="#D87D61"/>
<path d="M18.9766 113.357H43.7592H68.5406" stroke="black" stroke-width="0.413091" stroke-miterlimit="10" stroke-linecap="round"/>
<path d="M18.9766 115.146H43.7592H68.5406" fill="#D87D61"/>
<path d="M18.9766 115.146H43.7592H68.5406" stroke="black" stroke-width="0.413091" stroke-miterlimit="10" stroke-linecap="round"/>
<path d="M18.9766 116.937H43.7592H68.5406" fill="#D87D61"/>
<path d="M18.9766 116.937H43.7592H68.5406" stroke="black" stroke-width="0.413091" stroke-miterlimit="10" stroke-linecap="round"/>
<path d="M18.9766 118.73H43.7592H68.5406" fill="#D87D61"/>
<path d="M18.9766 118.73H43.7592H68.5406" stroke="black" stroke-width="0.413091" stroke-miterlimit="10" stroke-linecap="round"/>
<path d="M18.7603 129.99H17.8749H16.9895V128.042V126.094H17.8749H18.7603V128.042V129.99Z" fill="#F6991A" stroke="#070707" stroke-width="0.413091" stroke-miterlimit="10" stroke-linecap="round"/>
<path d="M70.5291 129.99H69.6437H68.7583V128.042V126.094H69.6437H70.5291V128.042V129.99Z" fill="#F6991A" stroke="#070707" stroke-width="0.413091" stroke-miterlimit="10" stroke-linecap="round"/>
<path d="M43.7592 4.95557C36.9157 4.95557 30.7207 8.22587 26.2359 13.5134C21.7512 18.801 18.9766 26.1044 18.9766 34.168V93.6764H68.5474V34.1693C68.5474 26.1017 65.7742 18.7982 61.2894 13.5148C56.8046 8.23138 50.6028 4.95557 43.7592 4.95557Z" fill="#040400"/>
<path d="M35.0178 95.1687C35.0575 95.1689 35.0971 95.1657 35.1362 95.159C35.1761 95.1519 35.2152 95.1413 35.2533 95.1274C35.2919 95.1133 35.3293 95.0958 35.3648 95.075C35.4012 95.0537 35.4358 95.0293 35.4681 95.0021C35.538 94.9419 35.5939 94.8672 35.6319 94.7831C35.6686 94.7004 35.6901 94.6118 35.6953 94.5215C35.6999 94.4282 35.6873 94.3349 35.6581 94.2461C35.6278 94.1574 35.5811 94.0752 35.5204 94.0038C34.7173 93.0429 34.0025 92.0115 33.3847 90.9221C32.1409 88.7314 31.2838 86.3428 30.8511 83.861C30.6356 82.6272 30.5315 81.3764 30.5399 80.1239C30.5399 79.8857 30.5482 79.6378 30.5647 79.3872C30.5788 79.134 30.6059 78.8817 30.6459 78.6313C30.6856 78.3795 30.7436 78.131 30.8194 77.8877C30.8942 77.6462 30.9939 77.4132 31.1168 77.1924C31.2167 77.0143 31.3368 76.8484 31.4749 76.698C31.6185 76.5411 31.7808 76.4024 31.9582 76.2849C32.1347 76.166 32.329 76.0758 32.5338 76.0178C32.7391 75.9596 32.9543 75.9446 33.1658 75.9737C33.3294 75.9971 33.4888 76.0434 33.6395 76.1114C33.7971 76.1839 33.9478 76.2705 34.0897 76.3703C34.2369 76.4739 34.3784 76.5851 34.5138 76.7035C34.6515 76.8219 34.7823 76.9445 34.909 77.0657C35.2432 77.3851 35.5709 77.7119 35.8922 78.0461C36.2144 78.3807 36.527 78.7222 36.834 79.0705C37.1411 79.4189 37.4385 79.7742 37.7304 80.1363C38.0223 80.4985 38.3033 80.8647 38.5786 81.2379C38.6887 81.3838 38.8502 81.4822 39.0303 81.5133C39.1186 81.5298 39.2091 81.5298 39.2974 81.5133C39.4316 81.4852 39.5549 81.4191 39.6525 81.3229C39.7502 81.2267 39.8181 81.1045 39.8482 80.9708C39.8903 80.7915 39.8612 80.6029 39.767 80.4447C39.3291 79.7049 38.9266 78.9434 38.5594 78.1604C38.1922 77.3773 37.8631 76.5791 37.5721 75.7658C37.2815 74.9534 37.0282 74.1258 36.8161 73.2873C36.6041 72.4487 36.4319 71.6074 36.3011 70.7592C36.2185 70.2208 36.1634 69.714 36.1263 69.2349C36.0938 68.7835 36.0841 68.3308 36.0973 67.8785C36.11 67.4725 36.1496 67.0677 36.2158 66.6668C36.2761 66.2971 36.3645 65.9325 36.4801 65.5762C36.6422 65.1011 36.8717 64.6517 37.1617 64.242C37.4739 63.7921 37.8443 63.3855 38.2633 63.033C38.6693 62.6854 39.1362 62.416 39.6403 62.2385C40.1271 62.0683 40.6521 62.0387 41.155 62.1531C41.4525 62.2297 41.7328 62.3619 41.9811 62.5428C42.2462 62.7331 42.492 62.949 42.7151 63.1872C42.9464 63.4282 43.1653 63.6857 43.3746 63.9363C43.5839 64.1869 43.7877 64.4306 43.975 64.6413C44.2632 64.9552 44.5464 65.2724 44.8246 65.5928C45.1 65.915 45.3754 66.2386 45.6508 66.5677C45.9261 66.8968 46.1878 67.2272 46.4494 67.5618C46.711 67.8964 46.9685 68.2365 47.2205 68.578C47.3252 68.72 47.477 68.8201 47.6487 68.8603C47.732 68.8809 47.8186 68.8851 47.9035 68.8727C47.9903 68.8611 48.0738 68.8315 48.1486 68.786C48.2338 68.7352 48.3071 68.6666 48.3634 68.5849C48.4175 68.5073 48.4546 68.4191 48.4722 68.3261C48.4907 68.2352 48.4907 68.1415 48.4722 68.0507C48.4507 67.9553 48.41 67.8653 48.3524 67.7863C47.9999 67.3098 47.6391 66.8394 47.2701 66.3749C46.901 65.9104 46.5228 65.4514 46.1354 64.9979C45.7499 64.5463 45.3561 64.1015 44.954 63.6636C44.5519 63.2258 44.1462 62.7961 43.7368 62.3748C43.5991 62.2371 43.4683 62.0994 43.3237 61.9713C43.1791 61.8433 43.0373 61.7111 42.883 61.5885C42.7297 61.4662 42.5693 61.3531 42.4025 61.2498C42.2317 61.1464 42.0531 61.0566 41.8682 60.9813C41.6805 60.9058 41.4865 60.8468 41.2885 60.805C41.0853 60.7625 40.879 60.7367 40.6716 60.7279C40.4575 60.7201 40.243 60.7279 40.03 60.7513C39.8072 60.7773 39.5863 60.8183 39.369 60.8739C38.8932 60.9998 38.4379 61.1932 38.0168 61.4481C37.5816 61.7104 37.1818 62.0273 36.8271 62.3913C36.4578 62.7702 36.1343 63.1912 35.8633 63.6457C35.5782 64.1201 35.3473 64.6249 35.1748 65.1508C35.0087 65.6668 34.8893 66.1968 34.8181 66.7343C34.7498 67.2492 34.7162 67.7681 34.7176 68.2875C34.7176 68.7901 34.7452 69.2748 34.7878 69.7264C34.8305 70.1781 34.887 70.598 34.9448 70.9726C35.0173 71.4509 35.1032 71.9273 35.2023 72.4019C35.3015 72.8765 35.4121 73.3492 35.5342 73.8202C35.6563 74.2911 35.7912 74.7583 35.939 75.2219C36.0868 75.6855 36.2456 76.1445 36.4154 76.5989L36.2777 76.4612C36.2323 76.4157 36.1868 76.3703 36.14 76.3235L36.0023 76.1858C35.9569 76.1403 35.9101 76.0963 35.8646 76.0481C35.6994 75.8897 35.5273 75.73 35.3428 75.5744C35.158 75.4159 34.9635 75.2692 34.7603 75.1352C34.5532 74.9988 34.3337 74.8822 34.1049 74.7868C33.8678 74.6884 33.6194 74.6199 33.3654 74.583C33.001 74.531 32.6301 74.5483 32.2721 74.6339C31.9311 74.72 31.6057 74.8594 31.3082 75.047C31.0135 75.2299 30.7444 75.4512 30.5082 75.7052C30.2799 75.9463 30.0819 76.2146 29.9189 76.5039C29.7615 76.7874 29.6315 77.0852 29.5306 77.3934C29.4322 77.6929 29.3567 77.9995 29.3048 78.3104C29.2531 78.6127 29.2172 78.9174 29.1974 79.2234C29.1767 79.5222 29.1698 79.8169 29.1671 80.0991C29.1576 81.4375 29.2686 82.7739 29.4989 84.0923C29.9621 86.7402 30.8789 89.2883 32.2088 91.6244C32.8697 92.7858 33.6338 93.8854 34.4918 94.9098C34.5253 94.9498 34.5631 94.9858 34.6047 95.0172C34.6862 95.0784 34.7803 95.1207 34.8801 95.1411C34.925 95.1546 34.9711 95.1638 35.0178 95.1687Z" fill="url(#paint1_linear_207_475)" stroke="black" stroke-width="0.413091" stroke-miterlimit="10" stroke-linecap="round"/>
<path d="M69.5541 57.2811C69.5996 57.2535 69.6425 57.2217 69.6821 57.1861C69.7223 57.1505 69.7592 57.1113 69.7923 57.0691C69.8258 57.0257 69.8557 56.9796 69.8818 56.9314C69.9083 56.8815 69.9304 56.8295 69.9479 56.7758C69.9853 56.659 69.9966 56.5353 69.9809 56.4136C69.9655 56.2938 69.9276 56.178 69.8694 56.0721C69.8095 55.9675 69.7317 55.8743 69.6394 55.7968C69.5448 55.7159 69.4353 55.6542 69.3172 55.615C67.7355 55.0857 66.2045 54.4151 64.7429 53.6115C61.8028 51.9971 59.1631 49.8879 56.9396 47.3766C55.8337 46.128 54.8424 44.7823 53.9778 43.3558C53.8126 43.0805 53.6473 42.7982 53.4903 42.5035C53.3334 42.2088 53.1847 41.9018 53.0538 41.5878C52.9234 41.2747 52.8157 40.9526 52.7316 40.6239C52.6486 40.2975 52.5988 39.9635 52.5829 39.627C52.5729 39.3557 52.5932 39.0841 52.6435 38.8174C52.6958 38.537 52.7823 38.2642 52.901 38.0049C53.0169 37.7466 53.1736 37.5085 53.365 37.2999C53.558 37.0902 53.7924 36.9228 54.0535 36.8084C54.2565 36.7221 54.4707 36.6651 54.6897 36.639C54.9182 36.6126 55.1485 36.6062 55.3782 36.6197C55.6172 36.6339 55.8553 36.661 56.0914 36.701C56.3296 36.7395 56.5651 36.7863 56.7923 36.8387C57.3954 36.9663 57.9958 37.1081 58.5934 37.2641C59.191 37.4202 59.7877 37.5882 60.3834 37.7681C60.9737 37.9517 61.5603 38.1454 62.1432 38.3492C62.7243 38.5557 63.3026 38.7747 63.8741 39.0074C64.0428 39.0751 64.2274 39.0933 64.4062 39.0599C64.5849 39.0265 64.7505 38.9428 64.8834 38.8187C64.9734 38.7343 65.0463 38.6333 65.0982 38.5213C65.15 38.4092 65.1795 38.2881 65.1849 38.1647C65.1963 37.9243 65.1161 37.6886 64.9605 37.5051C64.881 37.4104 64.7837 37.3323 64.6741 37.2752C63.6643 36.7418 62.6766 36.1598 61.7108 35.5292C60.7451 34.8985 59.8129 34.2224 58.9142 33.5009C58.0146 32.7821 57.1522 32.0225 56.3269 31.222C55.5016 30.4215 54.7186 29.5857 53.9778 28.7145C53.5078 28.1637 53.0869 27.6286 52.7151 27.109C52.3622 26.6215 52.035 26.1159 51.7347 25.5943C51.466 25.125 51.2278 24.6388 51.0214 24.1389C50.8319 23.6781 50.6776 23.2035 50.5601 22.7192C50.4109 22.0658 50.3562 21.3943 50.3977 20.7254C50.4397 19.9978 50.5786 19.2791 50.8108 18.5883C51.0301 17.91 51.3727 17.2779 51.8215 16.7239C52.2529 16.1919 52.8256 15.7925 53.4738 15.5714C53.8647 15.4503 54.2747 15.4036 54.6828 15.4337C55.1162 15.4647 55.5456 15.538 55.9648 15.6526C56.3944 15.7641 56.8226 15.9046 57.2343 16.0423C57.646 16.18 58.0426 16.3177 58.4089 16.421C58.9532 16.5761 59.4958 16.7386 60.0364 16.9084C60.5771 17.0782 61.1151 17.2545 61.6503 17.4372C62.1854 17.6208 62.7188 17.8108 63.2503 18.0072C63.7818 18.2037 64.3101 18.4079 64.8352 18.62C64.945 18.6632 65.0614 18.6874 65.1794 18.6916C65.2943 18.6946 65.4089 18.6778 65.5182 18.642C65.6259 18.6056 65.7262 18.5501 65.8142 18.4782C65.905 18.4024 65.9791 18.3086 66.0318 18.2028C66.0928 18.0853 66.128 17.9562 66.135 17.8241C66.142 17.6985 66.1228 17.5728 66.0786 17.4551C66.034 17.3374 65.9667 17.2298 65.8803 17.1384C65.7902 17.045 65.6813 16.9718 65.5608 16.9236C64.8265 16.6289 64.0884 16.3471 63.3467 16.0781C62.605 15.8091 61.8559 15.553 61.0995 15.3097C60.3458 15.0674 59.5885 14.8379 58.8275 14.6213C58.0665 14.4046 57.3027 14.2031 56.5362 14.0168C56.2925 13.9562 56.0432 13.897 55.7899 13.846C55.5365 13.7951 55.2818 13.7496 55.0243 13.7193C54.7644 13.6867 54.5027 13.6706 54.2408 13.6712C53.975 13.6718 53.7097 13.6944 53.4477 13.7386C53.1819 13.7844 52.9206 13.8536 52.6669 13.9452C52.4075 14.039 52.156 14.1536 51.9151 14.288C51.6662 14.4282 51.4282 14.587 51.2032 14.7631C50.9681 14.9468 50.7467 15.1475 50.5409 15.3635C50.0883 15.8379 49.7062 16.3749 49.4062 16.958C49.0975 17.5598 48.8662 18.1983 48.7178 18.8582C48.5631 19.5468 48.4892 20.251 48.4975 20.9567C48.5069 21.6931 48.5993 22.4262 48.7728 23.1419C48.9447 23.8436 49.1793 24.5284 49.4737 25.1881C49.7563 25.819 50.0806 26.4304 50.4445 27.0181C50.7956 27.5896 51.166 28.1197 51.5295 28.6016C51.8931 29.0836 52.2511 29.5201 52.5774 29.9042C52.9951 30.3944 53.4252 30.8745 53.8676 31.3445C54.3101 31.8146 54.7659 32.2735 55.235 32.7215C55.7031 33.1695 56.1828 33.6051 56.6739 34.0283C57.165 34.4514 57.6662 34.8622 58.1775 35.2606L57.9283 35.2028L57.6791 35.145L57.4285 35.0899C57.3459 35.072 57.2619 35.0527 57.1779 35.0362C56.8818 34.9729 56.572 34.9109 56.2567 34.8627C55.9375 34.8134 55.6156 34.7836 55.2928 34.7732C54.9629 34.763 54.6329 34.7838 54.3069 34.8352C53.969 34.8894 53.6392 34.9856 53.3251 35.1216C52.8754 35.3186 52.4671 35.5989 52.1216 35.9478C51.7917 36.2823 51.517 36.6671 51.3078 37.0879C51.1025 37.5018 50.9516 37.9406 50.859 38.3932C50.7703 38.8261 50.7338 39.2681 50.7502 39.7096C50.7692 40.1413 50.8296 40.5701 50.9306 40.9902C51.0288 41.3985 51.1572 41.7989 51.3147 42.1882C51.4679 42.5662 51.6403 42.9362 51.8311 43.2966C52.0184 43.6505 52.2139 43.9851 52.4094 44.3115C53.3343 45.8333 54.3942 47.2689 55.5764 48.6007C57.946 51.2766 60.759 53.5242 63.892 55.2446C65.4527 56.0997 67.0873 56.8121 68.7761 57.3734C68.844 57.3978 68.9148 57.413 68.9867 57.4188C69.0535 57.4264 69.121 57.4264 69.1878 57.4188C69.253 57.4107 69.3172 57.3955 69.3792 57.3734C69.4405 57.3488 69.4991 57.3179 69.5541 57.2811Z" fill="url(#paint2_linear_207_475)" stroke="black" stroke-width="0.413091" stroke-miterlimit="10" stroke-linecap="round"/>
<path d="M43.7591 2.31525C36.3662 2.31525 29.6741 5.84855 24.83 11.5643C19.9858 17.2801 16.9895 25.1605 16.9895 33.8712V96.3126H70.5288V33.8712C70.5288 25.1564 67.5325 17.2664 62.6801 11.5547C57.8276 5.84304 51.1507 2.31525 43.7591 2.31525ZM68.1411 28.9141H46.5227L54.3907 21.8145L62.2394 14.7107C63.7609 16.728 65.0217 18.9292 65.9917 21.2623C67.0167 23.716 67.7385 26.2856 68.1411 28.9141ZM60.8212 12.9812L52.8499 20.1869L44.8772 27.3995V4.98381C47.9156 5.14758 50.885 5.95187 53.5907 7.34394C56.3292 8.75905 58.7809 10.6706 60.8212 12.9812ZM42.6452 4.98381V27.204L34.7194 20.0437L26.7949 12.8835C28.8307 10.6016 31.2702 8.71521 33.9909 7.31915C36.6791 5.94395 39.626 5.14835 42.6411 4.98381H42.6452ZM41.2007 28.9141H19.3772C19.782 26.2603 20.5118 23.6664 21.55 21.1907C22.5337 18.8386 23.8137 16.6217 25.3587 14.5937L33.2804 21.7539L41.2007 28.9141ZM68.5405 93.673H18.9765V34.1687C18.9765 33.6592 18.9875 33.1543 19.0095 32.654C19.0315 32.1537 19.0641 31.6543 19.1073 31.1559H68.4096C68.4537 31.6516 68.4854 32.1514 68.5074 32.654C68.5294 33.1566 68.5405 33.6619 68.5405 34.1687V93.6757V93.673Z" fill="#F6991A" stroke="#070707" stroke-width="0.413091" stroke-miterlimit="10" stroke-linecap="round"/>
<path d="M60.7675 73.5287C60.7675 73.3703 60.3627 73.2271 59.6907 73.1156C58.8042 72.9842 57.91 72.911 57.0139 72.8967C57.0016 72.0044 56.9095 71.115 56.7385 70.2391C56.5911 69.5685 56.3984 69.1637 56.1877 69.1637C55.977 69.1637 55.7842 69.5685 55.6369 70.2391C55.4659 71.115 55.3737 72.0044 55.3615 72.8967C54.4636 72.9109 53.5675 72.984 52.6792 73.1156C52.0072 73.2271 51.6038 73.3703 51.6038 73.5287C51.6038 73.687 52.0072 73.8289 52.6792 73.9418C53.5653 74.0722 54.459 74.1444 55.3546 74.158C55.3669 75.0503 55.459 75.9397 55.63 76.8155C55.7774 77.4861 55.9701 77.8909 56.1808 77.8909C56.3915 77.8909 56.5843 77.4861 56.7316 76.8155C56.9026 75.9397 56.9947 75.0503 57.007 74.158C57.9053 74.1448 58.8018 74.0726 59.6907 73.9418C60.3627 73.8275 60.7675 73.6843 60.7675 73.5287Z" fill="url(#paint3_linear_207_475)" stroke="black" stroke-width="0.413091" stroke-miterlimit="10" stroke-linecap="round"/>
<path d="M56.2509 81.6789C55.5377 81.8317 55.0902 81.9983 54.7831 82.3054C54.476 82.6125 54.3094 83.06 54.1566 83.7746C54.1521 83.7959 54.1404 83.815 54.1234 83.8287C54.1065 83.8424 54.0854 83.8499 54.0636 83.8499C54.0418 83.8499 54.0207 83.8424 54.0038 83.8287C53.9869 83.815 53.9752 83.7959 53.9707 83.7746C53.8178 83.06 53.6512 82.6125 53.3442 82.3054C53.0371 81.9983 52.591 81.8317 51.8763 81.6789C51.8547 81.6752 51.8351 81.6639 51.8212 81.6469C51.8073 81.63 51.7999 81.6085 51.8006 81.5866C51.8002 81.5648 51.8076 81.5435 51.8215 81.5266C51.8354 81.5097 51.8548 81.4983 51.8763 81.4944C52.591 81.3415 53.0371 81.1749 53.3442 80.8678C53.6512 80.5608 53.8178 80.1133 53.9707 79.3986C53.9752 79.3773 53.9869 79.3582 54.0038 79.3445C54.0207 79.3308 54.0418 79.3233 54.0636 79.3233C54.0854 79.3233 54.1065 79.3308 54.1234 79.3445C54.1404 79.3582 54.1521 79.3773 54.1566 79.3986C54.3094 80.1133 54.476 80.5608 54.7831 80.8678C55.0902 81.1749 55.5377 81.3415 56.2509 81.4944C56.2724 81.4983 56.2919 81.5097 56.3057 81.5266C56.3196 81.5435 56.327 81.5648 56.3267 81.5866C56.3273 81.6085 56.32 81.63 56.3061 81.6469C56.2922 81.6639 56.2726 81.6752 56.2509 81.6789Z" fill="url(#paint4_linear_207_475)" stroke="black" stroke-width="0.413091" stroke-miterlimit="10" stroke-linecap="round"/>
<path d="M42.4814 37.1251C41.7751 37.2766 41.3317 37.4418 41.0287 37.7461C40.7258 38.0505 40.5592 38.4925 40.4077 39.1988C40.4038 39.22 40.3926 39.2391 40.3759 39.2527C40.3593 39.2663 40.3383 39.2736 40.3168 39.2732C40.2952 39.2736 40.2741 39.2664 40.2572 39.2528C40.2403 39.2392 40.2288 39.2201 40.2246 39.1988C40.0731 38.4925 39.9093 38.0491 39.605 37.7461C39.3006 37.4432 38.8586 37.2766 38.1523 37.1251C38.1311 37.1212 38.112 37.11 38.0984 37.0933C38.0848 37.0767 38.0775 37.0558 38.0779 37.0343C38.0775 37.0126 38.0847 36.9915 38.0983 36.9746C38.1119 36.9577 38.131 36.9462 38.1523 36.942C38.8586 36.7905 39.3006 36.6267 39.605 36.3224C39.9093 36.0181 40.0731 35.576 40.2246 34.8697C40.2288 34.8484 40.2403 34.8293 40.2572 34.8157C40.2741 34.8021 40.2952 34.7949 40.3168 34.7953C40.3383 34.7949 40.3593 34.8022 40.3759 34.8158C40.3926 34.8294 40.4038 34.8485 40.4077 34.8697C40.5592 35.576 40.7244 36.0181 41.0287 36.3224C41.3331 36.6267 41.7751 36.7905 42.4814 36.942C42.5027 36.9462 42.5218 36.9577 42.5354 36.9746C42.549 36.9915 42.5562 37.0126 42.5558 37.0343C42.5562 37.0558 42.5489 37.0767 42.5353 37.0933C42.5217 37.11 42.5026 37.1212 42.4814 37.1251Z" fill="url(#paint5_linear_207_475)" stroke="black" stroke-width="0.413091" stroke-miterlimit="10" stroke-linecap="round"/>
<path d="M63.4254 71.993C63.0979 71.9927 62.7806 71.8787 62.5277 71.6706C62.2748 71.4626 62.1018 71.1732 62.0383 70.8519C61.9748 70.5306 62.0247 70.1973 62.1795 69.9086C62.3342 69.62 62.5843 69.3939 62.887 69.269C63.1898 69.1441 63.5265 69.128 63.8398 69.2235C64.153 69.319 64.4235 69.5202 64.6051 69.7928C64.7866 70.0653 64.8681 70.3924 64.8355 70.7183C64.8029 71.0442 64.6584 71.3487 64.4264 71.5799C64.295 71.7114 64.1389 71.8155 63.9671 71.8864C63.7953 71.9573 63.6112 71.9935 63.4254 71.993ZM63.4254 69.9358C63.277 69.9358 63.1331 69.9873 63.0184 70.0814C62.9036 70.1755 62.8251 70.3065 62.796 70.4521C62.767 70.5976 62.7894 70.7487 62.8592 70.8796C62.9291 71.0106 63.0422 71.1132 63.1793 71.1701C63.3164 71.227 63.4689 71.2347 63.611 71.1917C63.7531 71.1488 63.8758 71.0579 63.9584 70.9346C64.041 70.8113 64.0783 70.6632 64.064 70.5155C64.0497 70.3678 63.9845 70.2296 63.8798 70.1245C63.7592 70.004 63.5958 69.9362 63.4254 69.9358Z" fill="url(#paint6_linear_207_475)" stroke="black" stroke-width="0.413091" stroke-miterlimit="10" stroke-linecap="round"/>
<path d="M25.894 59.9524C25.57 59.9531 25.2558 59.8415 25.005 59.6365C24.7541 59.4316 24.582 59.146 24.518 58.8285C24.4541 58.5109 24.5022 58.181 24.6542 57.8949C24.8062 57.6089 25.0527 57.3843 25.3516 57.2596C25.6506 57.1349 25.9835 57.1176 26.2938 57.2108C26.604 57.304 26.8723 57.5019 27.0531 57.7708C27.2338 58.0396 27.3157 58.3628 27.2849 58.6853C27.2541 59.0077 27.1124 59.3095 26.884 59.5393C26.7544 59.6701 26.6002 59.7739 26.4303 59.8448C26.2604 59.9157 26.0781 59.9523 25.894 59.9524ZM25.894 57.9172C25.7471 57.9172 25.6048 57.9682 25.4913 58.0613C25.3778 58.1545 25.3001 58.2842 25.2714 58.4282C25.2428 58.5722 25.265 58.7218 25.3342 58.8513C25.4035 58.9808 25.5155 59.0823 25.6512 59.1385C25.7868 59.1947 25.9378 59.2021 26.0783 59.1594C26.2189 59.1168 26.3403 59.0267 26.4219 58.9046C26.5034 58.7825 26.5402 58.6359 26.5257 58.4897C26.5113 58.3436 26.4467 58.2069 26.3428 58.1031C26.2236 57.9843 26.0623 57.9175 25.894 57.9172Z" fill="url(#paint7_linear_207_475)" stroke="black" stroke-width="0.413091" stroke-miterlimit="10" stroke-linecap="round"/>
<path d="M28.0227 48.4551L27.308 48.1315L26.5947 47.8066L25.8801 47.4816L25.1668 47.158L25.7369 46.8083L26.307 46.4599L26.877 46.1115L27.4471 45.7631L26.6787 44.9824L25.9104 44.2017L25.142 43.4209L24.3723 42.6402L25.35 42.7985L26.3262 42.9569L27.3025 43.1152L28.2802 43.2736L27.8629 42.1403L27.4471 41.0057L27.0299 39.8725L26.6126 38.7379L27.5738 39.4704L28.5335 40.2016L29.4933 40.9327L30.453 41.6653L30.6609 41.0209L30.8689 40.3764L31.0768 39.732L31.2847 39.089L31.6785 39.8146L32.0709 40.5403L32.4648 41.266L32.8586 41.993L33.8059 41.2315L34.7519 40.4701L35.6979 39.7086L36.6452 38.9472L36.1991 40.1313L35.753 41.3169L35.3082 42.5025L34.8621 43.6881L35.9512 43.6302L37.0404 43.5724L38.1282 43.5146L39.2174 43.4567L38.3554 44.1645L37.4921 44.8723L36.6287 45.5786L35.7667 46.2864L36.374 46.9184L36.9812 47.5505L37.5898 48.1825L38.1971 48.8131L37.3723 48.831L36.5475 48.8503L35.7227 48.8682L34.8979 48.8861L35.0438 50.102L35.1898 51.3178L35.3357 52.5337L35.4817 53.7496L34.7189 52.8339L33.956 51.9182L33.1932 51.0011L32.4317 50.0855L31.9759 51.114L31.5215 52.1426L31.0658 53.1699L30.6114 54.1985L30.4503 53.0514L30.2905 51.9044L30.1308 50.7588L29.9697 49.6118L28.9191 50.3939L27.8671 51.176L26.8151 51.9568L25.7644 52.7389L26.329 51.6676L26.8935 50.5963L27.4581 49.5264L28.0227 48.4551Z" fill="url(#paint8_linear_207_475)" stroke="black" stroke-width="0.413091" stroke-miterlimit="10" stroke-linecap="round"/>
<path d="M91.3983 99.9905L79.2686 99.9657L67.1388 99.9451C64.2954 102.342 61.0637 104.796 58.0853 107.474C55.1069 110.153 52.3791 113.058 50.5464 116.352C49.4263 118.382 48.9998 120.722 49.3319 123.016C49.6424 125.316 50.7658 127.428 52.4989 128.972C53.9365 130.233 55.6357 130.935 57.4312 131.312C59.2268 131.69 61.1201 131.726 62.9474 131.666C69.8198 131.446 75.4034 131.367 80.9856 131.345C86.5679 131.323 92.1542 131.356 99.0308 131.356H99.8212C99.8582 131.354 99.8931 131.338 99.9186 131.311C99.9442 131.285 99.9586 131.249 99.9589 131.212V114.48H89.6027C89.6619 114.425 89.7487 114.343 89.8519 114.239C89.9552 114.136 90.0778 114.008 90.2058 113.861C91.7136 112.133 92.2575 109.953 92.4172 108.166C92.5209 107.051 92.4899 105.928 92.325 104.821L92.2671 104.514C92.2093 104.214 92.0937 103.617 91.8637 102.418C91.8637 102.386 91.7439 101.796 91.631 101.204C91.5181 100.612 91.4038 100.022 91.3983 99.9905Z" fill="#DBCAF4" stroke="black" stroke-width="0.413091" stroke-miterlimit="10" stroke-linecap="round"/>
<path d="M95.3187 125.342H94.8588V117.672H99.9687V116.627H94.8602V114.48H93.8192V116.627H85.8934V108.957H92.3211C92.3486 108.777 92.3706 108.601 92.3899 108.427C92.4092 108.254 92.4243 108.083 92.4367 107.916H85.8934V100.23C85.8935 100.186 85.8879 100.142 85.8768 100.099C85.8646 100.058 85.848 100.018 85.8273 99.9808H84.9199C84.8987 100.019 84.8825 100.059 84.8717 100.101C84.8594 100.143 84.8533 100.187 84.8538 100.231V107.923H77.184V100.23C77.1841 100.183 77.1771 100.137 77.1634 100.092C77.1506 100.049 77.1326 100.007 77.1097 99.9684H76.2188C76.1949 100.008 76.1763 100.051 76.1637 100.095C76.15 100.14 76.143 100.186 76.1431 100.233V107.925H68.4733V99.9519H67.4324V107.923H59.7929V105.986L59.2711 106.437L58.7519 106.89V107.926H57.5967C57.4131 108.099 57.2295 108.271 57.0459 108.444C56.8614 108.617 56.6782 108.791 56.4951 108.967H58.7575V116.627H51.0864V115.443C50.9941 115.593 50.9018 115.743 50.811 115.894C50.7201 116.046 50.6333 116.197 50.5493 116.352C50.4291 116.565 50.3185 116.782 50.2175 117.003C50.1142 117.223 50.0206 117.446 49.9338 117.672H50.0454V125.342H49.9572C50.1013 125.705 50.2668 126.06 50.453 126.403C50.6419 126.75 50.8521 127.085 51.0822 127.406V126.379H58.7519V131.519C58.9254 131.54 59.0976 131.559 59.2711 131.575C59.4446 131.592 59.6194 131.606 59.7929 131.618V126.386H67.4324V131.537L67.9556 131.523L68.4733 131.511V126.383H76.1472V131.377H76.6691H77.1882V126.383H84.8579V131.34H85.8975V126.383H93.822V131.34H94.8629V126.383H99.9687V125.342H95.3187ZM58.7519 125.342H51.0864V117.672H58.7561V125.342H58.7519ZM67.4268 125.342H59.7929V117.672H67.4324V125.342H67.4268ZM67.4268 116.632H59.7929V108.963H67.4324V116.627L67.4268 116.632ZM76.1472 125.342H68.4775V117.672H76.1472V125.342ZM76.1472 116.627H68.4775V108.957H76.1472V116.627ZM84.8579 125.336H77.1882V117.667H84.8579V125.336ZM84.8579 116.627H77.1882V108.957H84.8579V116.627ZM93.822 125.336H85.8934V117.667H93.8178V125.336H93.822Z" fill="#84A1E5" stroke="#070707" stroke-width="0.413091" stroke-miterlimit="10" stroke-linecap="round"/>
<path d="M120.7 131.695C120.732 131.166 120.659 130.635 120.485 130.135C120.373 129.808 120.224 129.494 120.041 129.201L119.741 128.745L119.436 128.294L115.38 122.002L111.325 115.709C111.218 115.543 111.095 115.388 110.958 115.245C110.819 115.104 110.665 114.98 110.498 114.875C110.11 114.637 109.669 114.501 109.214 114.481L114.914 123.393L120.613 132.306C120.634 132.206 120.651 132.105 120.667 132.002C120.682 131.898 120.691 131.799 120.7 131.695Z" fill="#C6FCDB" stroke="black" stroke-width="0.413091" stroke-miterlimit="10" stroke-linecap="round"/>
<path d="M109.215 114.486H109.154H99.9685V129.953H102.243L104.519 129.946C104.519 129.946 105.538 130.366 106.966 131.006C108.394 131.646 110.234 132.504 111.871 133.381C112.035 133.469 112.221 133.564 112.47 133.691C112.719 133.818 113.032 133.966 113.449 134.183C114.336 134.627 114.878 134.882 115.258 135.038C115.531 135.156 115.815 135.245 116.107 135.302C116.601 135.41 117.112 135.417 117.609 135.323C118.106 135.228 118.578 135.034 118.998 134.751C119.829 134.18 120.407 133.311 120.612 132.324L114.913 123.411L109.215 114.486Z" fill="#ECE7E1" stroke="black" stroke-width="0.413091" stroke-miterlimit="10" stroke-linecap="round"/>
<path d="M94.0996 81.6348C93.7471 80.9096 93.3652 80.2087 92.9539 79.5321C92.5492 78.8644 92.1093 78.2187 91.6362 77.5975C89.82 75.2126 87.4529 73.5809 84.8133 72.5826C82.1737 71.5843 79.2627 71.2235 76.3573 71.3791C67.1964 71.8762 63.1081 76.9793 61.314 81.9639C59.5198 86.9485 60.0155 91.8092 60.0155 91.8092L57.1748 88.7303L54.3355 85.6459L50.0517 89.3348L45.7666 93.0237L49.9209 99.1567L54.0739 105.295C54.5677 106.026 55.1353 106.703 55.7675 107.318C56.3987 107.933 57.096 108.475 57.8467 108.936C58.4756 109.319 59.1395 109.642 59.8296 109.9C60.6103 110.192 61.4221 110.393 62.2489 110.499C62.9327 110.597 63.624 110.634 64.3144 110.609C65.3346 110.571 66.3369 110.329 67.2625 109.898C68.8529 109.137 70.1155 107.775 70.9679 106.043C71.8202 104.311 72.2664 102.215 72.2223 99.9843H91.398C91.398 99.9843 91.6293 101.192 91.862 102.399L92.3247 104.815C92.3247 104.777 92.7667 104.443 93.239 104.101C93.7113 103.76 94.2029 103.413 94.2965 103.334C95.1251 102.625 95.7724 101.728 96.1843 100.718C96.6012 99.71 96.8657 98.6455 96.9692 97.5594C97.2311 94.8711 97.1166 92.1594 96.6291 89.5028C96.1488 86.777 95.2977 84.1298 94.0996 81.6348Z" fill="#ECE7E1" stroke="black" stroke-width="0.413091" stroke-miterlimit="10" stroke-linecap="round"/>
<path d="M78.3164 72.6469C79.9412 71.2782 80.9161 69.1563 81.2521 67.0895C81.6005 64.9414 81.2287 62.7217 79.8751 61.1134C79.8187 61.046 79.7608 60.9757 79.7002 60.9165C79.6396 60.8573 79.5804 60.7898 79.5185 60.7293C78.4885 59.7254 77.1115 59.1926 75.6933 59.1113C74.2684 59.02 72.8534 59.4035 71.6698 60.2019C70.9743 60.7059 70.4031 61.3619 69.9995 62.12C69.5915 62.8761 69.2682 63.675 69.0356 64.5021C68.9837 64.6755 68.9414 64.8515 68.9089 65.0295C68.8745 65.2058 68.8483 65.3848 68.8208 65.5665C68.8112 65.6271 68.7988 65.8488 68.7726 66.0623C68.7465 66.2757 68.7065 66.4753 68.6432 66.5043L68.2989 66.642L67.9616 66.7797L67.6242 66.9174L67.2869 67.055C67.4562 67.1927 67.6091 67.3222 67.7426 67.4296C67.8762 67.537 67.9891 67.6279 68.08 67.705C68.1709 67.7821 68.2535 67.8344 68.3389 67.9033C68.4243 67.9701 68.5019 68.0463 68.5702 68.1305C68.6326 68.2138 68.675 68.3104 68.6941 68.4127C68.7162 68.5119 68.7258 68.6165 68.7423 68.7198C69.4046 72.9278 74.6357 75.5702 78.1456 72.7998C78.2049 72.7392 78.2613 72.7006 78.3164 72.6469Z" fill="#F2B3C1" stroke="black" stroke-width="0.413091" stroke-miterlimit="10" stroke-linecap="round"/>
<path d="M71.3148 65.6149C71.3034 65.6668 71.2819 65.7159 71.2514 65.7595C71.1919 65.8432 71.1028 65.9012 71.0022 65.9219C70.9502 65.9321 70.8966 65.9316 70.8448 65.9204C70.793 65.9093 70.7439 65.8878 70.7006 65.8572C70.6167 65.7981 70.559 65.7088 70.5395 65.608C70.5278 65.5563 70.5278 65.5027 70.5395 65.451C70.5509 65.4015 70.5719 65.3547 70.6015 65.3133C70.6303 65.271 70.6673 65.235 70.7103 65.2073C70.7521 65.1798 70.7989 65.1607 70.848 65.1508C70.8997 65.1398 70.9532 65.1398 71.0049 65.1508C71.0544 65.1626 71.1011 65.1836 71.1426 65.2128C71.1842 65.242 71.2198 65.2789 71.2473 65.3216C71.2746 65.3637 71.2942 65.4103 71.3051 65.4593C71.3185 65.51 71.3217 65.5629 71.3148 65.6149Z" fill="#040400"/>
<path d="M71.8852 67.935C71.8696 67.9847 71.8513 68.0334 71.8301 68.081C71.7884 68.1726 71.7391 68.2606 71.6828 68.344C71.6078 68.4528 71.5189 68.5514 71.4184 68.6373C71.2043 68.8209 70.939 68.9343 70.6583 68.9622C70.5548 68.9726 70.4506 68.9726 70.3471 68.9622C70.2668 68.9523 70.1872 68.9371 70.1089 68.9168C70.0622 68.9035 70.0163 68.8879 69.9712 68.87" stroke="black" stroke-width="0.413091" stroke-miterlimit="10" stroke-linecap="round"/>
<path d="M70.5774 63.825L71.1502 64.0232L71.7244 64.2215L72.2986 64.4198L72.8728 64.6181" stroke="black" stroke-width="0.413091" stroke-miterlimit="10" stroke-linecap="round"/>
<path d="M75.4966 67.8747C75.4556 68.0688 75.3674 68.2498 75.2398 68.4017C75.1122 68.5536 74.949 68.6716 74.7649 68.7454C74.5807 68.8192 74.3812 68.8464 74.184 68.8246C73.9868 68.8028 73.798 68.7328 73.6344 68.6206C73.4708 68.5085 73.3373 68.3577 73.2459 68.1816C73.1544 68.0056 73.1078 67.8097 73.1102 67.6113C73.1126 67.4129 73.1638 67.2182 73.2594 67.0443C73.355 66.8705 73.4921 66.723 73.6583 66.6147C73.7888 66.5303 73.9341 66.4714 74.0866 66.4412C74.282 66.4033 74.4838 66.4143 74.674 66.4733C74.8641 66.5324 75.0367 66.6375 75.1763 66.7795C75.3159 66.9214 75.4183 67.0957 75.4741 67.2868C75.53 67.4779 75.5377 67.6799 75.4966 67.8747Z" fill="#FF6406" stroke="#070707" stroke-width="0.413091" stroke-miterlimit="10" stroke-linecap="round"/>
<path d="M80.6597 69.4421C80.7464 69.1364 80.8318 68.81 80.9089 68.4658C80.986 68.1215 81.059 67.758 81.1209 67.378C81.1705 67.0737 81.2105 66.779 81.2435 66.4953C81.2765 66.2117 81.3 65.9363 81.3179 65.6692C81.4098 65.668 81.5017 65.6716 81.5932 65.6802C81.714 65.6921 81.8337 65.7133 81.9513 65.7435C82.0499 65.7732 82.1457 65.8114 82.2377 65.8578C82.4034 65.9365 82.5543 66.0431 82.6838 66.1731C82.9434 66.4588 83.0873 66.8309 83.0873 67.2169C83.0977 67.5806 83.0344 67.9426 82.9014 68.2813C82.842 68.4368 82.7668 68.5859 82.6769 68.726C82.5464 68.9261 82.3751 69.0964 82.1743 69.2259C81.889 69.4056 81.5587 69.5011 81.2215 69.5013C81.0324 69.5074 80.8433 69.4874 80.6597 69.4421Z" fill="#F2B3C1" stroke="black" stroke-width="0.413091" stroke-miterlimit="10" stroke-linecap="round"/>
<path d="M69.1878 63.8416C69.3158 63.9476 69.1878 63.8416 68.9895 63.6888C68.7912 63.5359 68.5406 63.3184 68.4208 63.2041C68.1015 62.8601 67.8923 62.4285 67.8202 61.9648C67.7481 61.501 67.8162 61.0263 68.016 60.6016C68.244 60.17 68.61 59.8273 69.0556 59.6281C69.2912 59.5167 69.5416 59.4397 69.7991 59.3995C69.7213 59.1385 69.6805 58.8678 69.678 58.5954C69.6634 58.106 69.8026 57.6245 70.0759 57.2184C70.3118 56.8832 70.6366 56.6204 71.0136 56.4597C71.2846 56.3463 71.5679 56.2649 71.8577 56.2173C72.509 56.0934 73.1094 56.2504 73.6863 56.5024C74.2633 56.7543 74.8168 57.1027 75.3745 57.3588C76.0927 57.6812 76.8414 57.9307 77.6093 58.1038C78.3639 58.2842 79.1322 58.4163 79.9212 58.5582C80.5909 58.669 81.2441 58.8633 81.8655 59.1365C82.4884 59.4079 83.0357 59.8272 83.46 60.3579C83.8726 60.8892 84.1359 61.5209 84.2229 62.1879C84.3044 62.8533 84.2704 63.5278 84.1224 64.1817C84.0565 64.4969 83.9747 64.8085 83.8773 65.1153C83.779 65.4228 83.6689 65.7253 83.5468 66.0227C83.5014 66.1329 83.3774 66.3312 83.2714 66.5294C83.1654 66.7277 83.0649 66.9301 83.0759 67.0472C83.067 66.9622 83.0519 66.8779 83.0304 66.7952C82.9976 66.6805 82.9513 66.57 82.8927 66.4661C82.8194 66.3369 82.7265 66.2198 82.6173 66.1191C82.5457 66.0535 82.4683 65.9945 82.386 65.9429C82.1967 65.8196 81.9846 65.7353 81.7623 65.695C81.617 65.6685 81.4691 65.6592 81.3216 65.6675C81.3216 65.6675 81.2776 66.2183 81.1922 66.893C81.1213 67.5614 80.9951 68.2228 80.8149 68.8703C80.8149 68.8703 80.3481 68.7615 79.9515 68.1171C79.555 67.4727 79.2273 66.294 79.5068 64.1556C77.9508 64.6223 76.4774 64.5976 75.3029 64.2354C74.1283 63.8733 73.2374 63.1696 72.8601 62.2815C72.7374 61.9893 72.6657 61.6782 72.6481 61.3617C72.6179 60.7299 72.7299 60.0993 72.9758 59.5165C72.7308 59.6035 72.4925 59.7079 72.2625 59.8291C71.9873 59.9755 71.7255 60.146 71.4804 60.3386C71.3355 60.4513 71.1976 60.5727 71.0673 60.7021C70.8176 60.9464 70.59 61.2122 70.3871 61.4966C70.2369 61.7075 70.099 61.9268 69.974 62.1534C69.8597 62.3641 69.7606 62.5665 69.6614 62.7731C69.5623 62.9796 69.4384 63.2564 69.3461 63.4616C69.2539 63.6667 69.1878 63.8416 69.1878 63.8416Z" fill="#D87D61" stroke="black" stroke-width="0.413091" stroke-miterlimit="10" stroke-linecap="round"/>
<path d="M60.0154 91.8105L61.4984 93.2949L62.9827 94.7807" stroke="black" stroke-width="0.413091" stroke-miterlimit="10" stroke-linecap="round"/>
<path d="M90.5562 89.0881C90.7035 89.9047 90.8398 90.7584 90.9568 91.6438C91.0739 92.5292 91.1717 93.4504 91.2474 94.3977C91.3272 95.396 91.3768 96.364 91.3989 97.2894C91.4209 98.2147 91.4209 99.1207 91.3989 99.9813" stroke="black" stroke-width="0.413091" stroke-miterlimit="10" stroke-linecap="round"/>
<path d="M72.2912 89.3547C72.2802 91.1283 72.2687 92.9009 72.2567 94.6726C72.2448 96.4443 72.2329 98.2169 72.2209 99.9904" stroke="black" stroke-width="0.413091" stroke-miterlimit="10" stroke-linecap="round"/>
<path d="M54.3356 85.6442C53.8234 84.8827 53.3401 84.1295 52.9091 83.346C52.4715 82.5582 52.1029 81.734 51.8075 80.8826C51.4151 79.7425 51.0447 78.59 50.6536 77.4402C50.2626 76.2904 49.855 75.1572 49.3854 74.0446C49.1004 73.3671 48.7837 72.5382 48.3802 71.7698C47.9768 71.0015 47.488 70.2937 46.8559 69.8545C46.7581 69.7832 46.6517 69.7244 46.5392 69.6796C46.4258 69.6358 46.3032 69.6211 46.1826 69.6369C46.1074 69.6499 46.0349 69.675 45.9678 69.7113C45.9127 69.7408 45.8614 69.7769 45.8149 69.8187L45.5657 69.4345L45.3165 69.0517C44.5206 67.8771 43.956 67.6885 43.5884 67.7945C43.4702 67.839 43.3621 67.9066 43.2704 67.9934C43.1786 68.0802 43.1051 68.1844 43.0541 68.2999C42.9784 68.1531 42.883 68.0173 42.7705 67.8964C42.5716 67.6769 42.3076 67.5268 42.0173 67.4682C41.9099 67.4462 41.8005 67.4361 41.6909 67.4379C41.5365 67.4358 41.3857 67.4841 41.2613 67.5756C41.0823 67.7133 40.9859 67.9804 40.9969 68.304C41.0185 68.6953 41.1398 69.0745 41.3494 69.4056C41.16 69.4076 40.9729 69.4469 40.7986 69.5212C40.654 69.5831 40.5291 69.6836 40.4379 69.8118C40.23 70.1147 40.2685 70.5333 40.3828 70.9519C40.4971 71.3705 40.6844 71.7891 40.778 72.0893C40.9322 72.585 41.0727 73.0848 41.2172 73.5847C41.3618 74.0845 41.5078 74.5802 41.6744 75.0732C41.8295 75.5322 41.9732 75.9912 42.1054 76.4501C42.2431 76.9142 42.356 77.3837 42.4606 77.8547C42.5564 78.2037 42.6282 78.5589 42.6755 78.9177C42.7071 79.2936 42.6548 79.6557 42.3822 79.8981C42.3028 79.9691 42.2088 80.0217 42.1068 80.0523C42.0444 80.0717 41.9803 80.0851 41.9154 80.0922C41.5753 80.1267 41.2462 79.9848 40.8854 79.6791C40.4276 79.252 40.016 78.778 39.6571 78.265C39.4451 77.98 39.1559 77.498 38.8089 77.1207C38.4619 76.7434 38.0585 76.4722 37.6192 76.6099C37.3191 76.7035 37.2061 76.9514 37.1717 77.235C37.1551 77.5118 37.175 77.7896 37.2309 78.0612C37.3038 78.4862 37.4234 78.9018 37.5876 79.3005C37.7445 79.6957 37.929 80.0812 38.1094 80.4764C38.3449 80.9969 40.2245 84.1639 42.0613 87.1864C43.8982 90.2088 45.6965 93.0867 45.7681 93.0247L50.0533 89.3358L54.3356 85.6442Z" fill="#F2B3C1" stroke="black" stroke-width="0.413091" stroke-miterlimit="10" stroke-linecap="round"/>
<path d="M41.3435 69.4081C41.6368 69.9988 41.9329 70.6322 42.2234 71.3069C42.5139 71.9816 42.7976 72.7004 43.0688 73.4605C43.3236 74.1696 43.5453 74.8567 43.7394 75.526C43.9336 76.1952 44.1016 76.8244 44.2448 77.4317" stroke="black" stroke-width="0.413091" stroke-miterlimit="10" stroke-linecap="round"/>
<path d="M43.0481 68.3109C43.4295 69.0641 43.8123 69.8738 44.1841 70.7385C44.5559 71.6032 44.9166 72.5286 45.2568 73.5062C45.4605 74.0956 45.6464 74.6739 45.8144 75.2371C45.9824 75.8002 46.1325 76.3483 46.2674 76.8812" stroke="black" stroke-width="0.413091" stroke-miterlimit="10" stroke-linecap="round"/>
<path d="M45.8091 69.8285C46.0955 70.5702 46.3769 71.3317 46.6532 72.1129C46.9295 72.8941 47.198 73.6941 47.4587 74.5129C47.5633 74.8379 47.6639 75.1615 47.763 75.4837C47.8621 75.8059 47.9572 76.1254 48.0494 76.4476" stroke="black" stroke-width="0.413091" stroke-miterlimit="10" stroke-linecap="round"/>
<path d="M104.703 129.985L105.28 128.227L105.855 126.467C105.911 126.288 106.002 126.122 106.124 125.978C106.245 125.835 106.394 125.718 106.562 125.634C106.873 125.472 107.235 125.439 107.57 125.542C107.905 125.645 108.186 125.876 108.352 126.185C108.514 126.478 108.565 126.82 108.496 127.149C108.494 127.151 108.493 127.153 108.493 127.156C108.493 127.159 108.494 127.162 108.496 127.164C108.499 127.165 108.502 127.166 108.505 127.166C108.508 127.166 108.511 127.165 108.513 127.164C108.677 126.859 108.942 126.622 109.263 126.494C109.569 126.368 109.91 126.354 110.225 126.455C110.54 126.555 110.809 126.765 110.985 127.045C111.161 127.319 111.241 127.644 111.213 127.969C111.213 127.974 111.214 127.979 111.217 127.984C111.219 127.988 111.224 127.991 111.228 127.993C111.233 127.994 111.238 127.994 111.243 127.992C111.248 127.99 111.252 127.987 111.254 127.983C111.421 127.731 111.674 127.548 111.966 127.469C112.225 127.408 112.495 127.423 112.745 127.513C112.994 127.603 113.212 127.765 113.371 127.977C113.505 128.159 113.593 128.371 113.626 128.594C113.644 128.714 113.644 128.836 113.626 128.956C113.607 129.077 113.574 129.195 113.526 129.308L112.7 131.343L111.867 133.378C111.11 132.998 110.341 132.62 109.559 132.243C108.778 131.867 107.986 131.492 107.183 131.12C106.766 130.925 106.353 130.735 105.944 130.548C105.534 130.362 105.121 130.174 104.703 129.985Z" fill="#F6991A" stroke="#070707" stroke-width="0.413091" stroke-miterlimit="10" stroke-linecap="round"/>
<path d="M108.524 127.163L107.801 129.055L107.077 130.949" fill="#ECE7E1"/>
<path d="M108.524 127.163L107.801 129.055L107.077 130.949" stroke="black" stroke-width="0.413091" stroke-miterlimit="10" stroke-linecap="round"/>
<path d="M111.223 128.021L110.409 130.065L109.596 132.108" fill="#ECE7E1"/>
<path d="M111.223 128.021L110.409 130.065L109.596 132.108" stroke="black" stroke-width="0.413091" stroke-miterlimit="10" stroke-linecap="round"/>
<path d="M99.9685 117.411H105.091C105.299 117.439 105.512 117.415 105.709 117.344C105.907 117.272 106.085 117.153 106.227 116.998C106.515 116.697 106.672 116.294 106.665 115.877C106.643 115.485 106.471 115.116 106.184 114.847C106.042 114.708 105.869 114.603 105.679 114.541C105.49 114.479 105.288 114.461 105.091 114.489" stroke="black" stroke-width="0.413091" stroke-miterlimit="10" stroke-linecap="round"/>
<path d="M82.5863 109.57C82.5863 109.57 82.3109 111.36 81.1102 113.675C79.5333 116.709 77.0886 119.204 74.0876 120.843" stroke="black" stroke-width="0.413091" stroke-miterlimit="10" stroke-linecap="round"/>
<path d="M89.6026 114.481H85.133H80.6633" stroke="black" stroke-width="0.413091" stroke-miterlimit="10" stroke-linecap="round"/>
<path d="M56.3865 87.8731L52.0394 91.8691L47.6909 95.8664" stroke="black" stroke-width="0.413091" stroke-miterlimit="10" stroke-linecap="round"/>
<path d="M110.525 116.462L111.028 116.268L111.531 116.074" fill="#F2B3C1"/>
<path d="M110.525 116.462L111.028 116.268L111.531 116.074" stroke="black" stroke-width="0.413091" stroke-miterlimit="10" stroke-linecap="round"/>
<path d="M111.397 117.792L111.81 117.609L112.223 117.424" fill="#F2B3C1"/>
<path d="M111.397 117.792L111.81 117.609L112.223 117.424" stroke="black" stroke-width="0.413091" stroke-miterlimit="10" stroke-linecap="round"/>
<path d="M37.6881 107.025H27.3388H16.9895V105.873V104.721H27.3388H37.6881V105.873V107.025Z" fill="#DBCAF4" stroke="black" stroke-width="0.413091" stroke-miterlimit="10" stroke-linecap="round"/>
<path d="M35.2715 104.72H27.8882H20.5049V103.567V102.416H27.8882H35.2715V103.567V104.72Z" fill="#F6C34C" stroke="#070707" stroke-width="0.413091" stroke-miterlimit="10" stroke-linecap="round"/>
<defs>
<linearGradient id="paint0_linear_207_475" x1="16.9895" y1="79.7753" x2="120.047" y2="79.7753" gradientUnits="userSpaceOnUse">
<stop offset="0.11" stop-color="#FEC2D9"/>
<stop offset="0.38" stop-color="#DBCAF4"/>
<stop offset="0.65" stop-color="#A4C2FF"/>
<stop offset="0.97" stop-color="#C6FCDB"/>
</linearGradient>
<linearGradient id="paint1_linear_207_475" x1="29.1629" y1="77.9483" x2="48.4969" y2="77.9483" gradientUnits="userSpaceOnUse">
<stop offset="0.18" stop-color="#FEC2D9"/>
<stop offset="0.51" stop-color="#E3DEDA"/>
<stop offset="0.82" stop-color="#C6FCDB"/>
</linearGradient>
<linearGradient id="paint2_linear_207_475" x1="69.7964" y1="19.358" x2="52.7784" y2="48.8334" gradientUnits="userSpaceOnUse">
<stop offset="0.22" stop-color="#FEC2D9"/>
<stop offset="0.68" stop-color="#F6991A"/>
<stop offset="1" stop-color="#FC762B"/>
</linearGradient>
<linearGradient id="paint3_linear_207_475" x1="56.1849" y1="77.8909" x2="56.1849" y2="69.1623" gradientUnits="userSpaceOnUse">
<stop offset="0.11" stop-color="#FEC2D9"/>
<stop offset="0.57" stop-color="#A4C2FF"/>
<stop offset="0.97" stop-color="#C6FCDB"/>
</linearGradient>
<linearGradient id="paint4_linear_207_475" x1="51.8006" y1="81.5866" x2="56.3267" y2="81.5866" gradientUnits="userSpaceOnUse">
<stop offset="0.18" stop-color="#FEC2D9"/>
<stop offset="0.86" stop-color="#F6991A"/>
</linearGradient>
<linearGradient id="paint5_linear_207_475" x1="39.3406" y1="38.7252" x2="41.2931" y2="35.3433" gradientUnits="userSpaceOnUse">
<stop offset="0.11" stop-color="#FEC2D9"/>
<stop offset="0.38" stop-color="#DBCAF4"/>
<stop offset="0.65" stop-color="#A4C2FF"/>
<stop offset="0.97" stop-color="#C6FCDB"/>
</linearGradient>
<linearGradient id="paint6_linear_207_475" x1="62.0098" y1="70.5775" x2="64.8409" y2="70.5775" gradientUnits="userSpaceOnUse">
<stop offset="0.37" stop-color="#A4C2FF"/>
<stop offset="0.62" stop-color="#B5DEED"/>
<stop offset="0.86" stop-color="#C6FCDB"/>
</linearGradient>
<linearGradient id="paint7_linear_207_475" x1="24.4936" y1="58.552" x2="27.2943" y2="58.552" gradientUnits="userSpaceOnUse">
<stop offset="0.37" stop-color="#A4C2FF"/>
<stop offset="0.62" stop-color="#B5DEED"/>
<stop offset="0.86" stop-color="#C6FCDB"/>
</linearGradient>
<linearGradient id="paint8_linear_207_475" x1="24.3723" y1="46.4682" x2="39.2174" y2="46.4682" gradientUnits="userSpaceOnUse">
<stop offset="0.14" stop-color="#A4C2FF"/>
<stop offset="0.89" stop-color="#FEC2D9"/>
</linearGradient>
</defs>
</svg>
