<svg width="37" height="37" viewBox="0 0 37 37" fill="none" xmlns="http://www.w3.org/2000/svg">
<rect width="37" height="37" rx="18.5" fill="white"/>
<path fill-rule="evenodd" clip-rule="evenodd" d="M9 18.5256C9 13.271 13.273 9 18.5201 9C23.7672 9 28.0402 13.271 28.0402 18.5256C28.0402 23.7693 23.7672 28.0402 18.5201 28.0402C13.273 28.0402 9 23.7693 9 18.5256ZM22.0123 19.4882C22.1134 19.3871 22.242 19.231 22.2696 19.1943C22.4166 19.0014 22.4902 18.7626 22.4902 18.5247C22.4902 18.2574 22.4075 18.0094 22.2512 17.8073C22.2384 17.7945 22.2134 17.7673 22.1807 17.7317C22.1196 17.6652 22.0318 17.5697 21.948 17.4859C21.1945 16.6776 19.228 15.355 18.1988 14.9508C18.0425 14.8875 17.6474 14.7488 17.436 14.7396C17.2339 14.7396 17.0409 14.7855 16.8571 14.8774C16.6274 15.006 16.4436 15.208 16.3425 15.4468C16.2782 15.6122 16.1771 16.1081 16.1771 16.1173C16.076 16.6592 16.0209 17.541 16.0209 18.5146C16.0209 19.4432 16.076 20.2873 16.1587 20.8383C16.161 20.8406 16.1689 20.88 16.1812 20.9413C16.2185 21.1274 16.2963 21.5152 16.3793 21.6742C16.5814 22.0599 16.9766 22.2987 17.3993 22.2987H17.436C17.7117 22.2896 18.2906 22.0508 18.2906 22.0416C19.2647 21.6374 21.1853 20.3791 21.9572 19.5433L22.0123 19.4882Z" fill="#6B6EAB"/>
</svg>
