<svg width="52" height="52" viewBox="0 0 52 52" fill="none" xmlns="http://www.w3.org/2000/svg">
<g filter="url(#filter0_d_196_49)">
<rect x="4" width="44" height="44" rx="22" fill="#FDE1E1" shape-rendering="crispEdges"/>
<path d="M26 13.75C23.9289 13.75 22.25 15.4289 22.25 17.5C22.25 19.5711 23.9289 21.25 26 21.25C28.0711 21.25 29.75 19.5711 29.75 17.5C29.75 15.4289 28.0711 13.75 26 13.75Z" fill="#204556"/>
<path d="M22 23.25C19.9289 23.25 18.25 24.9289 18.25 27V28.1883C18.25 28.9415 18.7959 29.5837 19.5393 29.7051C23.8181 30.4037 28.1819 30.4037 32.4607 29.7051C33.2041 29.5837 33.75 28.9415 33.75 28.1883V27C33.75 24.9289 32.0711 23.25 30 23.25H29.6591C29.4746 23.25 29.2913 23.2792 29.1159 23.3364L28.2504 23.6191C26.7881 24.0965 25.2119 24.0965 23.7496 23.6191L22.8841 23.3364C22.7087 23.2792 22.5254 23.25 22.3409 23.25H22Z" fill="#204556"/>
</g>
<defs>
<filter id="filter0_d_196_49" x="0" y="0" width="52" height="52" filterUnits="userSpaceOnUse" color-interpolation-filters="sRGB">
<feFlood flood-opacity="0" result="BackgroundImageFix"/>
<feColorMatrix in="SourceAlpha" type="matrix" values="0 0 0 0 0 0 0 0 0 0 0 0 0 0 0 0 0 0 127 0" result="hardAlpha"/>
<feOffset dy="4"/>
<feGaussianBlur stdDeviation="2"/>
<feComposite in2="hardAlpha" operator="out"/>
<feColorMatrix type="matrix" values="0 0 0 0 0 0 0 0 0 0 0 0 0 0 0 0 0 0 0.15 0"/>
<feBlend mode="normal" in2="BackgroundImageFix" result="effect1_dropShadow_196_49"/>
<feBlend mode="normal" in="SourceGraphic" in2="effect1_dropShadow_196_49" result="shape"/>
</filter>
</defs>
</svg>
