<svg width="19" height="20" viewBox="0 0 19 20" fill="none" xmlns="http://www.w3.org/2000/svg">
<g id="Home">
<path id="Home_2" d="M6.5939 18.6577V15.6188C6.5939 14.843 7.22736 14.2142 8.00878 14.2142H10.8652C11.2405 14.2142 11.6004 14.3622 11.8657 14.6256C12.1311 14.889 12.2801 15.2463 12.2801 15.6188V18.6577C12.2778 18.9802 12.4052 19.2903 12.634 19.5192C12.8629 19.748 13.1744 19.8768 13.4992 19.8768H15.448C16.3582 19.8791 17.2319 19.5218 17.8763 18.8837C18.5208 18.2457 18.8829 17.3792 18.8829 16.4757V7.81839C18.8829 7.08851 18.557 6.39619 17.9931 5.92792L11.3636 0.671705C10.2104 -0.249889 8.55805 -0.220133 7.43927 0.742376L0.961054 5.92792C0.370444 6.38238 0.0174441 7.07676 0 7.81839V16.4668C0 18.3501 1.53785 19.8768 3.43488 19.8768H5.33919C6.01394 19.8768 6.56231 19.3363 6.5672 18.6665L6.5939 18.6577Z" fill="#6B6EAB"/>
</g>
</svg>
