<svg width="21" height="21" viewBox="0 0 21 21" fill="none" xmlns="http://www.w3.org/2000/svg">
<g id="Play">
<path id="Fill 1" fill-rule="evenodd" clip-rule="evenodd" d="M10.187 1.49074C5.39172 1.49074 1.49091 5.39155 1.49091 10.1868C1.49091 14.9821 5.39172 18.8829 10.187 18.8829C14.9823 18.8829 18.8831 14.9821 18.8831 10.1868C18.8831 5.39155 14.9823 1.49074 10.187 1.49074ZM10.1868 20.3737C4.56967 20.3737 0 15.804 0 10.1868C0 4.56967 4.56967 0 10.1868 0C15.804 0 20.3737 4.56967 20.3737 10.1868C20.3737 15.804 15.804 20.3737 10.1868 20.3737Z" fill="#6B6EAB"/>
<path id="Fill 3" fill-rule="evenodd" clip-rule="evenodd" d="M9.0781 8.03564C8.90219 9.03047 8.89921 11.4067 9.07512 12.3509C9.94771 12.0428 11.838 10.8005 12.3468 10.1853C11.84 9.58801 9.97355 8.37156 9.0781 8.03564ZM8.77423 13.9138C8.50589 13.9138 8.25147 13.8373 8.04375 13.6306C7.88375 13.4725 7.4564 13.0501 7.45441 10.2684C7.45341 7.31471 7.89766 6.87543 8.04375 6.72934C8.56353 6.21453 9.41028 6.56734 9.77105 6.71841C10.2878 6.93407 13.9144 8.79155 13.9144 10.1809C13.9144 11.4829 10.6506 13.3036 9.81676 13.6514C9.49178 13.7866 9.12108 13.9138 8.77423 13.9138Z" fill="#6B6EAB"/>
</g>
</svg>
