<svg width="42" height="42" viewBox="0 0 42 42" fill="none" xmlns="http://www.w3.org/2000/svg">
<g filter="url(#filter0_d_207_973)">
<rect x="4" width="34" height="34" rx="17" fill="#FDE1E1" shape-rendering="crispEdges"/>
<path d="M21.0001 10.125C19.2742 10.125 17.8751 11.5241 17.8751 13.25C17.8751 14.9759 19.2742 16.375 21.0001 16.375C22.726 16.375 24.1251 14.9759 24.1251 13.25C24.1251 11.5241 22.726 10.125 21.0001 10.125Z" fill="#204556"/>
<path d="M17.6667 18.0417C15.9409 18.0417 14.5417 19.4408 14.5417 21.1667V22.1569C14.5417 22.7846 14.9967 23.3198 15.6161 23.4209C19.1818 24.0031 22.8183 24.0031 26.384 23.4209C27.0035 23.3198 27.4584 22.7846 27.4584 22.1569V21.1667C27.4584 19.4408 26.0593 18.0417 24.3334 18.0417H24.0494C23.8956 18.0417 23.7428 18.066 23.5967 18.1137L22.8754 18.3492C21.6569 18.7471 20.3433 18.7471 19.1247 18.3492L18.4035 18.1137C18.2573 18.066 18.1045 18.0417 17.9508 18.0417H17.6667Z" fill="#204556"/>
</g>
<defs>
<filter id="filter0_d_207_973" x="0" y="0" width="42" height="42" filterUnits="userSpaceOnUse" color-interpolation-filters="sRGB">
<feFlood flood-opacity="0" result="BackgroundImageFix"/>
<feColorMatrix in="SourceAlpha" type="matrix" values="0 0 0 0 0 0 0 0 0 0 0 0 0 0 0 0 0 0 127 0" result="hardAlpha"/>
<feOffset dy="4"/>
<feGaussianBlur stdDeviation="2"/>
<feComposite in2="hardAlpha" operator="out"/>
<feColorMatrix type="matrix" values="0 0 0 0 0 0 0 0 0 0 0 0 0 0 0 0 0 0 0.15 0"/>
<feBlend mode="normal" in2="BackgroundImageFix" result="effect1_dropShadow_207_973"/>
<feBlend mode="normal" in="SourceGraphic" in2="effect1_dropShadow_207_973" result="shape"/>
</filter>
</defs>
</svg>
